<?xml version="1.0" encoding="UTF-8"?>
<svg width="24px" height="24px" viewBox="0 0 24 24" version="1.1" xmlns="http://www.w3.org/2000/svg" xmlns:xlink="http://www.w3.org/1999/xlink">
    <defs>
        <linearGradient x1="100%" y1="50%" x2="0%" y2="50%" id="linearGradient-1">
            <stop stop-color="#FED25F" offset="0%"></stop>
            <stop stop-color="#FDAA04" offset="100%"></stop>
        </linearGradient>
    </defs>
    <g id="页面-2" stroke="none" stroke-width="1" fill="none" fill-rule="evenodd">
        <g id="animate1">
            <rect id="矩形_8305" x="0" y="0" width="24" height="24"></rect>
            <path d="M11.432,22.666 L3.267,22.666 C1.7983301,22.6283409 0.636242476,21.4108306 0.667,19.942 C0.666770853,19.9390044 0.666770853,19.9359956 0.667,19.933 L0.667,17.984 L3.417,17.984 C4.78616732,17.9506908 5.87050173,16.8162758 5.842,15.447 L5.842,8.553 C5.87106624,7.18371829 4.78717184,6.04884865 3.418,6.015 L0.667,6.015 L0.667,4.07 C0.640693665,2.6040909 1.80135267,1.39120224 3.267,1.353 L11.435,1.353 L11.435,7.401 C9.21169466,7.79720174 7.60713119,9.75211399 7.652,12.01 C7.60285774,14.2604641 9.19636303,16.2130274 11.411,16.616 L11.435,22.666 L11.432,22.666 Z M20.739,22.646 L12.705,22.646 L12.705,16.598 C14.9284774,16.2018464 16.5333642,14.2470569 16.489,11.989 C16.538988,9.73824499 14.9450915,7.78520227 12.73,7.383 L12.705,1.333 L20.737,1.333 C22.2026473,1.37120224 23.3633063,2.5840909 23.337,4.05 L23.337,5.995 L20.737,5.995 C19.3670402,6.02776558 18.2819444,7.1629565 18.311,8.533 L18.311,15.453 C18.2825036,16.8226568 19.3674387,17.9572324 20.737,17.99 L23.283,17.99 L23.283,19.933 C23.3169365,21.3798485 22.1850408,22.586937 20.739,22.646 L20.739,22.646 Z M3.418,16.658 L0.667,16.658 L0.667,7.327 L3.417,7.327 C4.06694824,7.34391584 4.58098318,7.88298205 4.567,8.533 L4.567,15.453 C4.58043143,16.1022515 4.06715577,16.6405432 3.418,16.658 L3.418,16.658 Z M23.334,16.652 L20.734,16.652 C20.0836622,16.6361642 19.5685873,16.0973923 19.582,15.447 L19.582,8.553 C19.5686019,7.90146343 20.0854806,7.36220902 20.737,7.348 L23.283,7.348 L23.334,7.328 L23.334,16.651 L23.334,16.652 Z M11.434,15.252 L11.434,15.252 C9.94069825,14.8777219 8.89182795,13.5377626 8.88709179,11.9982783 C8.88238761,10.458794 9.92302143,9.11242808 11.414,8.729 L11.435,15.251 L11.434,15.252 Z M12.728,15.252 L12.728,15.252 L12.707,8.73 C14.2004832,9.10358414 15.2499796,10.4430655 15.255429,11.9825549 C15.2608361,13.5220444 14.2208116,14.8688933 12.73,15.253 L12.728,15.252 Z" id="足球场" fill="url(#linearGradient-1)" fill-rule="nonzero"></path>
        </g>
    </g>
</svg>