<svg id="动画-不亮" xmlns="http://www.w3.org/2000/svg" width="24" height="24" viewBox="0 0 24 24">
  <g id="组_3608" data-name="组 3608">
    <rect id="矩形_8305" data-name="矩形 8305" width="24" height="24" fill="none"/>
    <path id="足球场" d="M13.765,21.333H5.6A2.669,2.669,0,0,1,3,18.609.059.059,0,0,1,3,18.6V16.651h2.75a2.486,2.486,0,0,0,2.425-2.537V7.22A2.486,2.486,0,0,0,5.751,4.682H3V2.737A2.67,2.67,0,0,1,5.6.02h8.168V6.068a4.589,4.589,0,0,0-3.783,4.609,4.58,4.58,0,0,0,3.759,4.606l.024,6.05Zm9.307-.02H15.038V15.265a4.59,4.59,0,0,0,3.784-4.609,4.578,4.578,0,0,0-3.759-4.606L15.038,0H23.07a2.67,2.67,0,0,1,2.6,2.717V4.662h-2.6A2.486,2.486,0,0,0,20.644,7.2v6.92a2.486,2.486,0,0,0,2.426,2.537h2.546V18.6A2.653,2.653,0,0,1,23.072,21.313ZM5.751,15.325H3V5.994h2.75A1.181,1.181,0,0,1,6.9,7.2v6.92A1.181,1.181,0,0,1,5.751,15.325Zm19.916-.006h-2.6a1.181,1.181,0,0,1-1.152-1.205V7.22A1.181,1.181,0,0,1,23.07,6.015h2.546l.051-.02v9.323Zm-11.9-1.4h0a3.365,3.365,0,0,1-.02-6.523l.021,6.522Zm1.294,0h0l-.021-6.522a3.365,3.365,0,0,1,.023,6.523Z" transform="translate(-2.333 1.333)"/>
  </g>
</svg>