<svg id="动画" xmlns="http://www.w3.org/2000/svg" width="24" height="23.999" viewBox="0 0 24 23.999">
  <rect id="矩形_8283" data-name="矩形 8283" width="23.999" height="23.999" fill="none"/>
  <path id="路径_2326" data-name="路径 2326" d="M-4593.414-465.4v-5a3.78,3.78,0,0,0,3.059-3.789,3.788,3.788,0,0,0-3.035-3.808l-.023-5h9.3a2.208,2.208,0,0,1,2.109,2.242v1.6h-2.109a2.033,2.033,0,0,0-1.961,2.1v5.71a2.148,2.148,0,0,0,.566,1.481,1.913,1.913,0,0,0,1.395.614h2.07v1.615a2.188,2.188,0,0,1-2.062,2.236Zm-10.445,0a2.21,2.21,0,0,1-2.141-2.25v-1.6h2.234a1.9,1.9,0,0,0,1.391-.613,2.16,2.16,0,0,0,.578-1.483v-5.688a2.164,2.164,0,0,0-.578-1.483,1.9,1.9,0,0,0-1.391-.612H-4606v-1.591a2.309,2.309,0,0,1,.609-1.6,2.049,2.049,0,0,1,1.5-.668h9.25v5a3.794,3.794,0,0,0-3.07,3.81,3.789,3.789,0,0,0,3.055,3.788l.016,5Zm19.809-5.27a.832.832,0,0,1-.8-.858v-5.226a.832.832,0,0,1,.8-.858l2.016-.016.035.108v6.849Zm-21.949,0v-6.849l.035-.108,2.016.016a.832.832,0,0,1,.8.858v5.226a.832.832,0,0,1-.8.858Zm12.578-5.814a2.34,2.34,0,0,1,1.789,2.323,2.317,2.317,0,0,1-1.789,2.316Zm-2.945,2.323a2.34,2.34,0,0,1,1.793-2.323v4.64A2.317,2.317,0,0,1-4596.367-474.162Z" transform="translate(4606 486.2)" fill="#5a5a5a"/>
</svg>
