<?xml version="1.0" encoding="UTF-8"?>
<svg width="24px" height="24px" viewBox="0 0 24 24" version="1.1" xmlns="http://www.w3.org/2000/svg" xmlns:xlink="http://www.w3.org/1999/xlink">
    <title>animate</title>
    <defs>
        <linearGradient x1="100%" y1="50%" x2="0%" y2="50%" id="linearGradient-1">
            <stop stop-color="#FFC300" offset="0%"></stop>
            <stop stop-color="#FFA902" offset="100%"></stop>
        </linearGradient>
    </defs>
    <g id="页面-2" stroke="none" stroke-width="1" fill="none" fill-rule="evenodd">
        <g id="animate">
            <rect id="矩形_8283" x="0.000389148144" y="0" width="23.999" height="23.999"></rect>
            <path d="M12.5863891,20.8 L12.5863891,15.8 C14.3921497,15.449535 15.6834639,13.8500615 15.6453891,12.011 C15.6916606,10.1734148 14.4119906,8.56781886 12.6103891,8.203 L12.5873891,3.203 L21.8873891,3.203 C23.0812918,3.25642384 24.0159866,4.25006335 23.9963891,5.445 L23.9963891,7.045 L21.8873891,7.045 C20.7662992,7.08409623 19.8887383,8.02386056 19.9263891,9.145 L19.9263891,14.855 C19.9192955,15.4027807 20.1217681,15.9325721 20.4923891,16.336 C20.8522614,16.7250679 21.3574126,16.9474068 21.8873891,16.95 L23.9573891,16.95 L23.9573891,18.565 C23.985207,19.7443268 23.0731053,20.7333954 21.8953891,20.801 L12.5863891,20.8 Z M2.14138915,20.8 C0.932172758,20.7624369 -0.0220909696,19.7595908 0.000389148146,18.55 L0.000389148146,16.95 L2.23438915,16.95 C2.76315449,16.9481258 3.26722127,16.7259885 3.62538915,16.337 C3.99980352,15.9342621 4.20651806,15.4038856 4.20338915,14.854 L4.20338915,9.166 C4.2061149,8.61618911 3.99945617,8.08595571 3.62538915,7.683 C3.26704581,7.29438113 2.76300239,7.07261652 2.23438915,7.071 L0.000389148144,7.071 L0.000389148144,5.48 C-0.00913177491,4.88833374 0.208867379,4.31559376 0.609389148,3.88 C0.994406075,3.45796553 1.53813046,3.21582693 2.10938915,3.212 L11.3593891,3.212 L11.3593891,8.212 C9.54442761,8.56434089 8.24770832,10.1736244 8.28938915,12.022 C8.25514833,13.8581768 9.54261858,15.4545557 11.3443891,15.81 L11.3603891,20.81 L2.14138915,20.8 Z M21.9503891,15.53 C21.4931608,15.5126355 21.1357608,15.129324 21.1503891,14.672 L21.1503891,9.446 C21.1357608,8.98867597 21.4931608,8.60536449 21.9503891,8.588 L23.9663891,8.572 L24.0013891,8.68 L24.0013891,15.529 L21.9503891,15.53 Z M0.00138914814,15.53 L0.00138914814,8.681 L0.0363891481,8.573 L2.05238915,8.589 C2.50961747,8.60636449 2.86701745,8.98967597 2.85238915,9.447 L2.85238915,14.673 C2.86701745,15.130324 2.50961747,15.5136355 2.05238915,15.531 L0.00138914814,15.53 Z M12.5793891,9.716 C13.6470594,9.9744264 14.3912391,10.9407369 14.3683891,12.039 C14.3967433,13.1375683 13.6494948,14.1049398 12.5793891,14.355 L12.5793891,9.716 Z M9.63438915,12.039 C9.61196576,10.9395534 10.3581264,9.9728322 11.4273891,9.716 L11.4273891,14.356 C10.3545384,14.1078146 9.6045813,13.1388065 9.63338915,12.038 L9.63438915,12.039 Z" id="路径_2326" fill="url(#linearGradient-1)" fill-rule="nonzero"></path>
        </g>
    </g>
</svg>