<svg xmlns="http://www.w3.org/2000/svg" xmlns:xlink="http://www.w3.org/1999/xlink" width="21.998" height="22" viewBox="0 0 21.998 22">
    <defs>
        <style>.a{fill:url(#a);}</style>
        <linearGradient id="a" y1="0.5" x2="1" y2="0.5" gradientUnits="objectBoundingBox">
            <stop offset="0" stop-color="#fcb131"/>
            <stop offset="1" stop-color="#ffe64d"/>
        </linearGradient>
    </defs>
    <path class="a" d="M75.2,60.7a11,11,0,1,0,11,11A11.016,11.016,0,0,0,75.2,60.7Zm6.147,15.6a.287.287,0,0,1-.569.052,3.93,3.93,0,0,0-.995-1.7,6.422,6.422,0,0,0-4.591-1.7v2.31a.285.285,0,0,1-.158.254.293.293,0,0,1-.3-.022l-5.512-3.953a.264.264,0,0,1-.064-.064.283.283,0,0,1,.064-.394l5.512-3.968a.294.294,0,0,1,.3-.025.289.289,0,0,1,.158.254v2.453a7.847,7.847,0,0,1,1.692.254A6.078,6.078,0,0,1,79.708,71.6,6.213,6.213,0,0,1,81.348,76.3Z" transform="translate(-64.2 -60.7)"/>
</svg>