<svg xmlns="http://www.w3.org/2000/svg" width="20" height="20" viewBox="0 0 20 20">
    <path data-name="矩形 8727" style="fill:none" d="M0 0h20v20H0z"/>
    <path d="M86.382 80.1a.406.406 0 0 1-.8.073 5.546 5.546 0 0 0-1.4-2.4 9.063 9.063 0 0 0-6.479-2.4v3.26a.4.4 0 0 1-.222.358.414.414 0 0 1-.424-.031l-7.778-5.578a.373.373 0 0 1-.09-.09.4.4 0 0 1 .09-.556l7.778-5.6a.414.414 0 0 1 .424-.035.408.408 0 0 1 .222.358v3.462a11.074 11.074 0 0 1 2.388.358 8.578 8.578 0 0 1 3.983 2.2 8.767 8.767 0 0 1 2.308 6.621z" transform="translate(-68.107 -63.658)" />
</svg>
