<svg id="返回" xmlns="http://www.w3.org/2000/svg" width="24" height="24.003" viewBox="0 0 24 24.003">
  <path id="返回-2" data-name="返回" d="M76.2,60.7a12,12,0,1,0,12,12A12.018,12.018,0,0,0,76.2,60.7Zm6.707,17.017a.314.314,0,0,1-.621.056A4.288,4.288,0,0,0,81.2,75.916a7.007,7.007,0,0,0-5.009-1.854v2.52a.311.311,0,0,1-.172.277.32.32,0,0,1-.328-.024l-6.013-4.313a.288.288,0,0,1-.07-.07.309.309,0,0,1,.07-.43l6.013-4.329a.32.32,0,0,1,.328-.027.316.316,0,0,1,.172.277V70.62a8.562,8.562,0,0,1,1.846.277,6.632,6.632,0,0,1,3.079,1.7A6.778,6.778,0,0,1,82.909,77.717Z" transform="translate(-64.2 -60.7)"/>
</svg>