<svg xmlns="http://www.w3.org/2000/svg" width="24" height="24" viewBox="0 0 24 24">
    <path data-name="矩形 8369" style="fill:none" d="M0 0h24v24H0z"/>
    <path d="M81.349 70.764a53.14 53.14 0 0 1-2.682 1.262 16.249 16.249 0 0 1-3.959 1.186 7.659 7.659 0 0 0 4.058 4.472 8.981 8.981 0 0 0 2.6-6.334q.002-.295-.017-.586zm-13.017 1.36a15.566 15.566 0 0 0 1.564.289 19.4 19.4 0 0 1 1.987-10.055 8.978 8.978 0 0 0-6.38 3.169c1.368 1.344 3.232 3.748 2.829 6.597zm-1.11-.446a6.811 6.811 0 0 0-2.336-5.334 8.958 8.958 0 0 0-1.422 3.69 15.113 15.113 0 0 0 3.746 1.778l.012-.134zm7.266.332q.014.172.037.338c4.349-.679 6.334-2.847 6.586-3.141a9 9 0 0 0-2.385-4.23c-1.491 1.183-4.488 3.966-4.238 7.033zm-3.811-.572q.022.552.073 1.064a15.734 15.734 0 0 0 1.86.032q.463-.019.9-.06c-.355-3.674 2.942-6.937 4.422-8.2A8.952 8.952 0 0 0 73 62.367a16.156 16.156 0 0 0-2.323 9.071zm4.474 4.639a6.771 6.771 0 0 1-1.489-2.728 16.473 16.473 0 0 1-2.8.03c.7 4.653 3.012 6.594 3.012 6.594l.038.252a8.95 8.95 0 0 0 3.729-1.572 23.642 23.642 0 0 1-2.49-2.576zM70 73.294a18.11 18.11 0 0 1-1.849-.329 7.572 7.572 0 0 1-1.59 2.78c-.433.5-.82.932-1.165 1.3a8.98 8.98 0 0 0 6.974 3.313h.076a52.308 52.308 0 0 1-1.284-2.858A16.9 16.9 0 0 1 70 73.294zm-6.627-2.117v.174a8.969 8.969 0 0 0 1.4 4.828 6.747 6.747 0 0 0 2.289-3.5 20.125 20.125 0 0 1-3.693-1.502z" transform="translate(-60.368 -59.357)" />
</svg>
