<svg id="我的投注" xmlns="http://www.w3.org/2000/svg" width="24" height="24" viewBox="0 0 24 24">
  <g id="组_3618" data-name="组 3618">
    <rect id="矩形_1133" data-name="矩形 1133" width="24" height="24" fill="none"/>
    <path id="路径_2339" data-name="路径 2339" d="M17.118,20a.525.525,0,0,1-.154-.024h-.022a.525.525,0,0,1-.332-.117l-2.711-1.8-2.193,1.767a.524.524,0,0,1-.659,0L8.841,18.048,6.564,19.883a.525.525,0,0,1-.66,0L3.711,18.114,1.04,19.883A.524.524,0,0,1,.71,20a.553.553,0,0,1-.09-.008A.5.5,0,0,1,.533,20,.54.54,0,0,1,0,19.454V2A1.979,1.979,0,0,1,1.954,0H15.7a1.919,1.919,0,0,1,1.365.571A2,2,0,0,1,17.651,2V19.454A.54.54,0,0,1,17.118,20ZM3.586,12.011a.682.682,0,0,0,0,1.364h7.2a.682.682,0,1,0,0-1.364Zm0-3.414a.682.682,0,1,0,0,1.363H14.065a.682.682,0,0,0,0-1.363Zm0-3.415a.682.682,0,0,0,0,1.364H14.065a.682.682,0,0,0,0-1.364Z" transform="translate(3 2)"/>
  </g>
</svg>