<svg xmlns="http://www.w3.org/2000/svg" width="28" height="28" viewBox="0 0 28 28"><path class="a" d="M78,92A14,14,0,1,0,64,78,14,14,0,0,0,78,92Zm-.6-18.722a1.081,1.081,0,0,1,1.2,0l3.7,2.691a1.085,1.085,0,0,1,.372,1.144l-1.416,4.353a1.083,1.083,0,0,1-.972.706H75.713a1.08,1.08,0,0,1-.972-.706l-1.416-4.353a1.079,1.079,0,0,1,.372-1.144Zm-8.916-3.425a12.561,12.561,0,0,1,4.766-3.447l-.3.556a.724.724,0,0,0,.216.984l4.116,2.369a1.757,1.757,0,0,0,1.447,0l4.109-2.366a.725.725,0,0,0,.213-.984l-.3-.559a12.589,12.589,0,0,1,4.856,3.55l-.337-.062a.72.72,0,0,0-.869.509l-.978,4.647a1.745,1.745,0,0,0,.447,1.375L89.387,79.6a.721.721,0,0,0,1-.1l.059-.063a12.45,12.45,0,0,1-2.009,5.494l-.172-1.119a.725.725,0,0,0-.766-.656l-4.713.588a1.745,1.745,0,0,0-1.153.869l-1.859,4.363a.724.724,0,0,0,.422.916l.669.306a12.659,12.659,0,0,1-5.934-.05l.628-.287a.724.724,0,0,0,.422-.916l-1.859-4.362a1.745,1.745,0,0,0-1.153-.869l-4.716-.587a.725.725,0,0,0-.766.656l-.128.834a12.485,12.485,0,0,1-1.844-5.553l.3.312a.727.727,0,0,0,1,.1L70.341,76.3a1.757,1.757,0,0,0,.447-1.375l-.981-4.644a.722.722,0,0,0-.869-.509Z" transform="translate(-64 -64)"/></svg>