<svg id="切换" xmlns="http://www.w3.org/2000/svg" width="24" height="24" viewBox="0 0 24 24">
  <g id="组_3611" data-name="组 3611">
    <path id="切换-2" data-name="切换" d="M118.1,167.792H98.83a1.03,1.03,0,0,0-.85,1.612,1.046,1.046,0,0,0,.216.319l4.54,4.538a1.031,1.031,0,1,0,1.458-1.458l-2.956-2.951H118.1a1.03,1.03,0,0,0,0-2.06Zm-19.273-4.78H118.1a1.03,1.03,0,0,0,.85-1.612,1.058,1.058,0,0,0-.149-.245l-3.714-4.538a1.03,1.03,0,0,0-1.594,1.306l2.48,3.029H98.83a1.03,1.03,0,1,0,0,2.06Z" transform="translate(-96.467 -153.025)"/>
    <rect id="矩形_8303" data-name="矩形 8303" width="24" height="24" fill="none"/>
  </g>
</svg>