<svg xmlns="http://www.w3.org/2000/svg" width="16.002" height="16.003" viewBox="0 0 16.002 16.003"><defs><style>.a{fill:#8e8f91;}</style></defs><g transform="translate(0 0.001)"><path class="a" d="M-6242-16316h-8a4,4,0,0,1-4-4v-8a4.005,4.005,0,0,1,4-4h8a4.005,4.005,0,0,1,4,4v8A4,4,0,0,1-6242-16316Zm-8.754-9.3a.866.866,0,0,0-.587.229.848.848,0,0,0-.262.578.819.819,0,0,0,.233.594l3.443,3.558.1.087a.847.847,0,0,0,.512.172.86.86,0,0,0,.615-.254l6.066-6.186.078-.094a.826.826,0,0,0-.1-1.078.863.863,0,0,0-.587-.23.855.855,0,0,0-.61.255l-5.451,5.554-2.836-2.927-.09-.082A.847.847,0,0,0-6250.751-16325.295Z" transform="translate(6253.998 16332.001)"/></g></svg>