<svg id="复制" xmlns="http://www.w3.org/2000/svg" width="24" height="24" viewBox="0 0 24 24">
  <g id="组_3628" data-name="组 3628" transform="translate(0 0)">
    <path id="路径_2318" data-name="路径 2318" d="M29.569,340.81h9.195v3.474a1.888,1.888,0,0,1-1.87,1.895H24.27a1.888,1.888,0,0,1-1.87-1.895V331.495a1.888,1.888,0,0,1,1.87-1.895H27.7v9.316A1.888,1.888,0,0,0,29.569,340.81Z" transform="translate(-22.4 -322.179)"/>
    <path id="路径_2319" data-name="路径 2319" d="M352.364,30.695V43.484a1.888,1.888,0,0,1-1.87,1.895H337.87A1.888,1.888,0,0,1,336,43.484V30.695a1.888,1.888,0,0,1,1.87-1.895h12.623A1.888,1.888,0,0,1,352.364,30.695Z" transform="translate(-328.364 -28.8)"/>
  </g>
</svg>