<?xml version="1.0" encoding="UTF-8"?>
<svg width="24px" height="24px" viewBox="0 0 24 24" version="1.1" xmlns="http://www.w3.org/2000/svg" xmlns:xlink="http://www.w3.org/1999/xlink">
    <title>编组 14</title>
    <g id="页面-1" stroke="none" stroke-width="1" fill="none" fill-rule="evenodd">
        <g id="编组-15" transform="translate(0.000000, 1.000000)">
            <path d="M2.40613403,7 L2.406,18.523 L7.14396286,12.4107499 L10.2347054,12.4107499 L8.01252433,15.1252491 C9.34284219,15.5369969 10.3760367,16.151111 11.1121078,16.9675913 C11.9269577,17.8714561 12.4896545,19.1547293 12.8001984,20.8174108 L12.766,20.649 L22.8232475,20.6498744 L24,23 L0,23 L0,7 L2.40613403,7 Z M6.51841278,16.9675913 L6.544,16.919 L3.491,20.649 L10.746474,20.6476538 C10.483166,19.6127503 10.1357326,18.8744903 9.70417398,18.432874 L9.58852844,18.3233886 C9.07896322,17.8786939 8.05559133,17.4267615 6.51841278,16.9675913 Z" id="形状结合" fill="#CDB370"></path>
            <polygon id="路径-2" fill="#E90404" points="13 6.30707921 0 14 0 0"></polygon>
        </g>
    </g>
</svg>