<svg id="冠军" xmlns="http://www.w3.org/2000/svg" width="24" height="24" viewBox="0 0 24 24">
  <g id="奖杯" transform="translate(0.833 0.833)">
    <path id="路径_72" data-name="路径 72" d="M142.361,134.862V133.23a1.39,1.39,0,0,0-1.39-1.39H128.762a1.39,1.39,0,0,0-1.39,1.39V134.8a4.351,4.351,0,0,0,.629,8.643,7.5,7.5,0,0,0,13.744-.012,4.348,4.348,0,0,0,.616-8.57Zm-16.693,4.231a2.423,2.423,0,0,1,1.7-2.309v3.784a6.482,6.482,0,0,0,.06.846,2.393,2.393,0,0,1-1.765-2.321Zm12.777-.036-1.4,1.451.326,2.043c.109.7-.266.967-.858.641l-1.729-1.027-1.729.967c-.592.326-.967.048-.858-.641l.326-2.043-1.4-1.451c-.484-.484-.326-.967.326-1.076l1.934-.266.858-1.777c.266-.641.749-.641,1.076,0l.858,1.825,1.934.266C138.77,138.09,138.928,138.573,138.444,139.057Zm3.868,2.273c.024-.254.048-.5.048-.749v-3.687a2.413,2.413,0,0,1-.048,4.436Zm-3.953,12.052h-7.253a.967.967,0,0,1,0-1.934h7.253a.967.967,0,0,1,0,1.934Z" transform="translate(-123.566 -131.674)"/>
    <path id="路径_73" data-name="路径 73" d="M477.867,689.493H479.8v4.352h-1.934Z" transform="translate(-467.412 -673.301)"/>
    <rect id="矩形_91" data-name="矩形 91" width="24" height="24" transform="translate(-0.833 -0.833)" fill="none"/>
  </g>
</svg>
