<svg xmlns="http://www.w3.org/2000/svg" width="20" height="20" viewBox="0 0 20 20">
    <defs>
        <style>.a{fill:none;}.b{fill:#8e8f91;}</style>
    </defs>
    <rect class="a" width="20" height="20"/>
    <path class="b" d="M-15894-65a4.007,4.007,0,0,1-4-4v-8.363a4.007,4.007,0,0,1,4-4h.092v-.818a.817.817,0,0,1,.818-.818.819.819,0,0,1,.817.818v.818h4.908v-.818a.818.818,0,0,1,.817-.818.817.817,0,0,1,.818.818v.818h.092a4.007,4.007,0,0,1,4,4V-69a4.007,4.007,0,0,1-4,4Zm.092-4.094a.817.817,0,0,0,.818.818h3.271a.819.819,0,0,0,.818-.818.819.819,0,0,0-.818-.818h-3.271A.817.817,0,0,0-15893.907-69.093Zm0-3.272a.817.817,0,0,0,.818.818h6.543a.819.819,0,0,0,.818-.818.819.819,0,0,0-.818-.818h-6.543A.817.817,0,0,0-15893.907-72.364Zm-2.458-5.362v1.273h13.091v-1.273a2,2,0,0,0-2-2h-.454v.822a.817.817,0,0,1-.818.818.818.818,0,0,1-.817-.818v-.822h-4.908v.822a.819.819,0,0,1-.817.818.817.817,0,0,1-.818-.818v-.822h-.455A2,2,0,0,0-15896.365-77.727Z" transform="translate(15899.816 84)"/>
</svg>