<svg id="delete-16" xmlns="http://www.w3.org/2000/svg" width="24" height="24" viewBox="0 0 24 24">
  <path id="delete" d="M85.958,67.729h-3.8a1.468,1.468,0,0,0-.137-.432l-.935-1.922a2.094,2.094,0,0,0-1.91-1.075H71.466a2.094,2.094,0,0,0-1.91,1.075L68.619,67.3a1.62,1.62,0,0,0-.139.432H64.639a1.344,1.344,0,0,0-1.339,1.34v.74a1.344,1.344,0,0,0,1.339,1.34h2.084V86.96a1.344,1.344,0,0,0,1.339,1.34H82.514a1.344,1.344,0,0,0,1.339-1.34V71.146h2.108a1.344,1.344,0,0,0,1.339-1.34v-.74A1.347,1.347,0,0,0,85.958,67.729ZM71.943,84A.87.87,0,1,1,70.2,84V73.736a.87.87,0,1,1,1.741,0Zm4.309,0a.87.87,0,1,1-1.741,0V73.736a.87.87,0,1,1,1.741,0Zm4.291,0A.87.87,0,1,1,78.8,84V73.736a.87.87,0,1,1,1.741,0Z" transform="translate(-63.3 -64.3)"/>
</svg>
