<svg id="倒计时点" xmlns="http://www.w3.org/2000/svg" width="24" height="24" viewBox="0 0 24 24">
  <g id="组_3603" data-name="组 3603">
    <rect id="矩形_8318" data-name="矩形 8318" width="24" height="24" fill="none"/>
    <path id="路径_2333" data-name="路径 2333" d="M1.887-10.789A3.162,3.162,0,0,1,4.325-9.72a3.085,3.085,0,0,1,.844,2.156A3.225,3.225,0,0,1,4.1-5.07a3.24,3.24,0,0,1-2.213.825A3.111,3.111,0,0,1-.569-5.314a3.291,3.291,0,0,1-.806-2.25A3.089,3.089,0,0,1-.325-9.945,3.156,3.156,0,0,1,1.887-10.789Zm0,16.238A3.162,3.162,0,0,1,4.325,6.517a3.085,3.085,0,0,1,.844,2.156,3.225,3.225,0,0,1-3.281,3.319A3.111,3.111,0,0,1-.569,10.923a3.291,3.291,0,0,1-.806-2.25A3.089,3.089,0,0,1-.325,6.292,3.156,3.156,0,0,1,1.887,5.448Z" transform="translate(10.075 11.295)"/>
  </g>
</svg>