<svg id="早盘" xmlns="http://www.w3.org/2000/svg" width="24" height="24" viewBox="0 0 24 24">
  <g id="组_3615" data-name="组 3615">
    <rect id="矩形_1133" data-name="矩形 1133" width="24" height="24" fill="none"/>
    <path id="路径_2337" data-name="路径 2337" d="M3961.767,1858.54a3.6,3.6,0,0,1-3.6-3.6V1841.9a3.6,3.6,0,0,1,3.6-3.6h14.8a3.605,3.605,0,0,1,3.6,3.6v13.04a3.6,3.6,0,0,1-3.6,3.6Zm-.994-12.56v7.554a2.4,2.4,0,0,0,2.4,2.4H3975.3a2.4,2.4,0,0,0,2.4-2.4v-7.554a2.4,2.4,0,0,0-2.4-2.4h-12.123A2.4,2.4,0,0,0,3960.773,1845.98Zm9.181,7.687v-2.539h2.539v2.539Zm-3.977,0v-2.539h2.539v2.539Zm-3.977,0v-2.539h2.539v2.539Zm11.931-5.28v-2.539h2.539v2.539Zm-3.977,0v-2.539h2.539v2.539Zm-3.977,0v-2.539h2.539v2.539Zm-3.977,0v-2.539h2.539v2.539Z" transform="translate(-3957.167 -1836.261)"/>
  </g>
</svg>