<?xml version="1.0" encoding="UTF-8"?>
<svg width="24px" height="24px" viewBox="0 0 24 24" version="1.1" xmlns="http://www.w3.org/2000/svg" xmlns:xlink="http://www.w3.org/1999/xlink">
    <title>编组 7</title>
    <g id="页面-1" stroke="none" stroke-width="1" fill="none" fill-rule="evenodd">
        <g id="编组" transform="translate(0.000000, 3.000000)">
            <circle id="椭圆形" fill="#FF3C30" cx="10.9069158" cy="9.42376327" r="9.42376327"></circle>
            <circle id="椭圆形" fill="#FFFFFF" cx="10.8360604" cy="14.1710726" r="1.13368581"></circle>
            <path d="M10.8702925,3.54614409 C11.5729382,3.54614409 12.0663865,4.13513299 12.0374813,4.52645635 L11.5969515,11.0534366 C11.5680463,11.44476 11.2273838,11.7619903 10.8360604,11.7619903 C10.444737,11.7619903 10.1074258,11.44476 10.0826547,11.0534366 L9.69751258,4.52645635 C9.67274149,4.13513299 10.1676469,3.54614409 10.8702925,3.54614409 Z" id="矩形" fill="#FFFFFF"></path>
            <polygon id="星形" fill="#FF3C30" transform="translate(20.517195, 2.164939) rotate(8.000000) translate(-20.517195, -2.164939) " points="20.5171955 2.90891992 19.465047 3.21708707 19.7732142 2.16493861 19.465047 1.11279015 20.5171955 1.42095729 21.5693439 1.11279015 21.2611768 2.16493861 21.5693439 3.21708707"></polygon>
            <polygon id="星形备份-2" fill="#FF3C30" transform="translate(1.275202, 16.798906) rotate(44.000000) translate(-1.275202, -16.798906) " points="1.27520228 17.436604 0.373360747 17.7007473 0.637504018 16.7989058 0.373360747 15.8970642 1.27520228 16.1612075 2.17704382 15.8970642 1.91290055 16.7989058 2.17704382 17.7007473"></polygon>
            <polygon id="星形备份" fill="#FF3C30" transform="translate(23.158515, 5.723470) rotate(21.000000) translate(-23.158515, -5.723470) " points="23.1585153 6.1840296 22.5071853 6.37479974 22.6979554 5.72346974 22.5071853 5.07213974 23.1585153 5.26290988 23.8098453 5.07213974 23.6190751 5.72346974 23.8098453 6.37479974"></polygon>
        </g>
    </g>
</svg>