<svg xmlns="http://www.w3.org/2000/svg" width="24" height="24" viewBox="0 0 24 24">
    <path data-name="矩形 8369" style="fill:none" d="M0 0h24v24H0z"/>
    <path data-name="路径 2357" d="m1197.371 1875.888 2.522-3.006 5.029.129 2.243 3.18a8.985 8.985 0 0 1-9.793-.3zm10.847-.448-2.438-3.236 1.629-4.636 3.856-1.119a8.995 8.995 0 0 1-3.046 8.991zm-11.783-.3a9 9 0 0 1-2.571-9.178l3.919 1.584 1.331 4.6-2.678 2.994zm3.727-3.38-1.271-4.392 3.7-2.542 3.583 2.774-1.5 4.276zm6.7-5.119-3.619-2.8v-4.312a9.044 9.044 0 0 1 7.682 5.793l-4.062 1.321zm-8.757-.141-3.815-1.683a9.012 9.012 0 0 1 7.828-5.312v4.237l-4.013 2.758z" transform="translate(-1190.501 -1856.5)" />
</svg>
