<svg xmlns="http://www.w3.org/2000/svg" width="24" height="23.999" viewBox="0 0 24 23.999">
    <path data-name="矩形 8369" transform="translate(.001)" style="fill:none" d="M0 0h23.999v23.999H0z"/>
    <path data-name="联合 43" d="m10.007 13.355-.373-.427a9.075 9.075 0 0 1-.374-1.494c.684-1.411 1.1-1.677.933-1.677.184-.19-.183-.369-.186-.373-.122-.186-.246-.186-.373-.373-.338 0-.742.041-1.154.082a4.776 4.776 0 0 1-2.2-.082c-.162-.139-.023-.047-.186-.186v-.374c.062 0 .312-.187.373-.187a5.987 5.987 0 0 0 2.61 0V7.7c-.184 0-.212.132-.557.186a5.684 5.684 0 0 0-.931 0c-.394-.329-.235-.471 0-.747a1.187 1.187 0 0 1 .557 0 1.107 1.107 0 0 0 .56 0c-.385-2.37-1.319-1.974-2.052-2.8a2.114 2.114 0 0 1-.559-1.863c-.148.026-.169-.026-.184-.086-.28.966-1.111 3.26-2.874 3.415a4.17 4.17 0 0 1-.344.016A2.98 2.98 0 0 1 .024 4.315a.245.245 0 0 1 .149-.335.3.3 0 0 1 .374.133A2.4 2.4 0 0 0 2.98 5.3c1.412-.126 2.225-2.359 2.452-3.32 0-.031 0-.053.01-.058C5.546 1.265 6.4.831 7.211.429c3.337-1.655 4.739 1.912 6.34 3.358.808 1.294 4.291-.959 4.477-1.864-.845-.025-.731-.208-.559-.56a4.485 4.485 0 0 0 1.866-.187 1.989 1.989 0 0 1 2.8.373c.216.1 1.689.025 1.868.373-.012.459-.221.18-.374.373-.348.212-1.867.019-1.867.56 1.383-.047 1.711-.083 1.494.37-.206.01-.478 0-.775-.01-.866-.031-1.946-.06-2.208.384a56.078 56.078 0 0 1-5.038 5.038c-.866.525-2.7.224-3.544.933-.221.24-.123.373-.186.56a2.783 2.783 0 0 0 1.493.93c-.062 0 .061.373 0 .373a6.43 6.43 0 0 0-1.306 0c-.348-.652-.455-.946-.933-.746-.576.547-.864.8-.747 1.68.092.386.111.3.374.468l.636.225-.19.449zm.374-6.024h.186c.216-.446.379-.323.186-.744a2.823 2.823 0 0 0-.372.744z" transform="translate(0 5.938)" />
</svg>
