<svg xmlns="http://www.w3.org/2000/svg" width="24" height="24" viewBox="0 0 24 24">
    <path data-name="矩形 8369" style="fill:none" d="M0 0h24v24H0z"/>
    <path d="M3.17 15.147h-.049A2.466 2.466 0 0 1 .7 12.731v-.136a2.452 2.452 0 0 1 .374-1.22l.015-.024v-.016l.007-.01.005-.008a2.471 2.471 0 0 1 .993-.852l-.306-.772h-.1a3.182 3.182 0 0 1-.983-.182A4.985 4.985 0 0 1 .177 8.1 4.162 4.162 0 0 1 0 6.99a3.38 3.38 0 0 1 .127-1.031 2.542 2.542 0 0 1 .578-1.027 2.543 2.543 0 0 1-.151-.493 1.235 1.235 0 0 1 .1-.882 1.03 1.03 0 0 1 .931-.386.534.534 0 0 1 .071 0 .98.98 0 0 1 .72.531 2.97 2.97 0 0 1 .266.531h-.351a1.21 1.21 0 0 1 0 .351.678.678 0 0 1-.353.528v.348a.952.952 0 0 1 .7.7 4.772 4.772 0 0 0 2.114-.7v.359l2.253-.505a2.39 2.39 0 0 1 .853-1.044 3.762 3.762 0 0 1 2.177-.57h.181c.013 0 .321-.014.726-.014.327 0 .626.009.889.025.118-.156.743-.937 1.405-.937h.036a6.171 6.171 0 0 1 1.874.631v-.059l.045-.015.067-.121.045-.017 3.376-1.262.01.027a4.41 4.41 0 0 1 2.092-.9l.352-.881.352.7h.352L22.193 0v1.233c.009 0 .219.056.7 1.057a13.55 13.55 0 0 0 .881 1.585.6.6 0 0 1 .226.451c-.019.163-.151.308-.395.43a1.455 1.455 0 0 1-.528.187.539.539 0 0 1-.353-.187.81.81 0 0 0-.185-.278 1.01 1.01 0 0 0-.742-.278 1.773 1.773 0 0 0-.305.028 6.956 6.956 0 0 1-.49.078h-.005c0-.009.305-.075.318-.077a3.892 3.892 0 0 0-.469-.039.452.452 0 0 0-.235.039 3.536 3.536 0 0 0-.394.751c-.1.209-.2.445-.311.658a7.1 7.1 0 0 0-.37 1.431 3.953 3.953 0 0 1-.336 1.209 5.032 5.032 0 0 0 .528 2.114l.528.7v.528l.176.528a7.805 7.805 0 0 0 1.409 1.761.776.776 0 0 1 .176.528 7.083 7.083 0 0 1-1.057-.176v-.528l-.7-.7-.36-1.233-1.23-1.761c.008.132.07 1.3-.177 1.405s-2.269.7-2.29.7l-.881.528a1.525 1.525 0 0 1 0-.483.983.983 0 0 1 .528-.749.635.635 0 0 0 .383.225.237.237 0 0 0 .145-.049l.176-.176a6.445 6.445 0 0 0 1.585-.528v-.528a6.49 6.49 0 0 1-1.054-1.754h-.218a8.766 8.766 0 0 1-1.967-.22 8.765 8.765 0 0 1-1.867-.66h-1.055c0 .006-.111.7-.165 1.5a5.6 5.6 0 0 0 .165 2.2 6.53 6.53 0 0 0 1.761 2.29v.352h-.881v-.352l-.352-.176a23.519 23.519 0 0 1-1.585-2.642 6.232 6.232 0 0 1 0-1.761l-.352-.7-2.29 1.402-.179.121q.048.074.09.151l.012.022v.03a2.19 2.19 0 0 1 .23.9v.135a2.184 2.184 0 0 1-.571 1.423q-.064.07-.134.134l-.007.006a2.185 2.185 0 0 1-1.423.571h-.136a2.2 2.2 0 0 1-.478-.072l-.142.047q-.021.073-.046.145a2.469 2.469 0 0 1-.695 1.053q-.065.058-.135.111a2.443 2.443 0 0 1-1.465.507h-.03zm-1.495-3.96a2.114 2.114 0 1 0 3.559 1.95 2.209 2.209 0 0 1-1.05-1.2L3.12 12.974l-.871-2.2a2.116 2.116 0 0 0-.574.413zm6.075-.971-.176.176-.176.7a3.344 3.344 0 0 1-.121.606 2.007 2.007 0 0 1-.583.98l-.166.332A1.849 1.849 0 0 0 7.8 10.18zm-2.468 2.542v-.077a2.1 2.1 0 0 0-.489-1.353l-.331.325a1.857 1.857 0 0 0 .82 1.105zm-2.063-.252.879-.864a2.223 2.223 0 0 1-.01-.865 2.129 2.129 0 0 0-1.594-.1zm2.389-.191.028.014h.7l.209-.209-.17-.387-1-.145a2.443 2.443 0 0 1 .233.727zm.37-2.152.584 1.329.164.024.144-2.005.051-.051q-.083-.032-.169-.057zM5.334 11.5l.027-.182.894.13-.477-1.086-.732.72a2.478 2.478 0 0 1 .164.215l.007.011.006.009v.014l.006.009q.064.085.105.16zm-.934-.316q0 .077.006.152l.2-.2a2.135 2.135 0 0 0-.2-.164 1.861 1.861 0 0 0-.006.212zm.461-.3.8-.787-.15-.342a2.49 2.49 0 0 0-.053.1 2.129 2.129 0 0 1-.189-.243 1.859 1.859 0 0 0-.769.988 2.474 2.474 0 0 1 .229.166l.01.008.009.008.027.023h.005l.006.005.007.006h.005l.007.006.009.008zm-.681-.457A2.209 2.209 0 0 1 5.111 9.3a.465.465 0 0 1 0-.318 2.081 2.081 0 0 0-.749-.14 1.706 1.706 0 0 0-1.012.316 2.668 2.668 0 0 1-1.259.5l.276.695a2.455 2.455 0 0 1 .694-.132H3.2a2.444 2.444 0 0 1 .885.176H4.103zm1.511-.919.172.391.57-.56q-.09-.009-.183-.009a1.848 1.848 0 0 0-.43.05 1.634 1.634 0 0 0-.127.133zm1.5-.321.033-.033c.005 0 .537-.01 1.233-.881v-.55l-1.421 1.4.034.013h.005l.114.056zm-.443-.153 1.581-1.552.126-.135v-.126a.624.624 0 0 0-.207-.034c-.208 0-.495.1-.674.562L6.518 8.983l-.035.012.055.005H6.566q.066.009.13.023h.035zM5.434 8.5h.428v-.524zm-.678-2.41v.251c-.143.045-.29.095-.437.146L4.756 8.1a.968.968 0 0 0 .529-.88h.352l.176.352.7-.352a2.916 2.916 0 0 0 .357-1.408 1.439 1.439 0 0 1 .04-.206zm-1.077.64.379 1.19h.02a2.205 2.205 0 0 1 .362.026l-.37-1.368c-.126.047-.258.098-.391.152zm.058 1.053-.3-.951-.087.037a1.163 1.163 0 0 1-.881.352v.352a2.68 2.68 0 0 1 .383-.028 1.481 1.481 0 0 1 .885.237zm11.94-4.445v.538a7.176 7.176 0 0 0 1.185-.349c.56-.222 1.264-.6 1.439-1.171zm-3.248.111a3.261 3.261 0 0 0-.278.288 3.022 3.022 0 0 1 .708.139h2.29V3.7a6.613 6.613 0 0 0-1.882-.66h-.025a1.354 1.354 0 0 0-.814.408z" transform="translate(.001 4.426)" />
</svg>
