<?xml version="1.0" encoding="UTF-8"?>
<svg width="24px" height="24px" viewBox="0 0 24 24" version="1.1" xmlns="http://www.w3.org/2000/svg" xmlns:xlink="http://www.w3.org/1999/xlink">
    <g id="页面-1" stroke="none" stroke-width="1" fill-rule="evenodd">
        <g id="问号" fill-rule="nonzero">
            <path d="M12.0000137,2.39999727 C8.51601576,2.39952789 5.3052271,4.28667442 3.61070973,7.33082504 C1.91619236,10.3749757 2.00395611,14.0982515 3.8400231,17.0591805 C4.18961893,17.6225103 4.01635331,18.3625827 3.45302352,18.7121786 C2.88969372,19.0617744 2.14962126,18.8885088 1.80002541,18.325179 C0.620249556,16.4266301 -0.00336819448,14.2352374 1.3682127e-05,11.9999863 C1.3682127e-05,5.37239385 5.37242133,0 12.0000137,0 C18.6276061,0 24,5.37239385 24,11.9999863 C24,18.6275787 18.6276061,23.9999829 12.0000137,23.9999829 C9.65356916,24.003065 7.35814049,23.3152711 5.40002129,22.0223748 C5.02626285,21.7935244 4.80698836,21.3791198 4.82802743,20.9413696 C4.8490665,20.5036194 5.10707258,20.1121538 5.50105553,19.9202024 C5.89503847,19.728251 6.3623298,19.7663464 6.7200198,20.0195771 C10.148412,22.2754739 14.6316621,22.1025102 17.8760575,19.5891774 C21.1204529,17.0758446 22.4083478,12.7780807 21.0808317,8.89470019 C19.7533156,5.01131967 16.104029,2.40130898 12.0000137,2.39999727 Z M12.0000137,8.39999039 C11.4144144,8.39999039 10.8000151,8.93518976 10.8000151,9.77158881 C10.7999137,10.434258 10.2626857,10.9714037 9.60001648,10.9714037 C8.93734728,10.9714037 8.40011931,10.434258 8.40001786,9.77158881 C8.40001786,7.76759112 9.93601609,5.99999315 12.0000137,5.99999315 C14.0640114,5.99999315 15.6000096,7.76759112 15.6000096,9.77158881 C15.6000096,10.7075877 15.27241,11.5775867 14.7180106,12.245986 C14.5561313,12.438017 14.3904997,12.6268531 14.2212112,12.8123853 L14.1012113,12.9443852 C13.9032115,13.1675849 13.7316118,13.3643847 13.5852119,13.5599845 C13.2852123,13.961984 13.2000124,14.2163837 13.2000124,14.3999835 C13.2000124,15.0627244 12.6627547,15.5999821 12.0000137,15.5999821 C11.3372728,15.5999821 10.8000151,15.0627244 10.8000151,14.3999835 C10.8000151,13.4471846 11.2488146,12.6779855 11.6640141,12.1235861 C11.8764139,11.8391865 12.1080136,11.5751867 12.3132134,11.343587 L12.4548132,11.1875872 C12.6108131,11.0135874 12.7452129,10.8635876 12.8712127,10.7123877 C13.0704125,10.472388 13.2000124,10.1447884 13.2000124,9.77158881 C13.2000124,8.93518976 12.5856131,8.39999039 12.0000137,8.39999039 Z M12.0000137,16.7999808 C11.5712518,16.7999151 11.1750313,17.0286192 10.9606313,17.399927 C10.7462314,17.7712349 10.7462314,18.2287239 10.9606313,18.6000317 C11.1750313,18.9713396 11.5712518,19.2000437 12.0000137,19.199978 C12.6626829,19.1998766 13.1998287,18.6626486 13.1998287,17.9999794 C13.1998287,17.3373102 12.6626829,16.8000822 12.0000137,16.7999808 L12.0000137,16.7999808 Z" id="形状"></path>
        </g>
    </g>
</svg>