<?xml version="1.0" encoding="UTF-8"?>
<svg width="24px" height="24px" viewBox="0 0 24 24" version="1.1" xmlns="http://www.w3.org/2000/svg" xmlns:xlink="http://www.w3.org/1999/xlink">
    <title>帮助备份 2</title>
    <g id="页面-1">
        <g id="帮助备份-2" >
            <path d="M22.296,18.1671 C22.0401817,18.5933257 21.4872757,18.7314683 21.06105,18.47565 C20.6348243,18.2198317 20.4966817,17.6669257 20.7525,17.2407 C21.7027296,15.6579923 22.2031953,13.8460471 22.2,12 C22.2,6.3666 17.6334,1.8 12,1.8 C6.3666,1.8 1.8,6.3666 1.8,12 C1.8,17.6334 6.3666,22.2 12,22.2 C13.8457869,22.2032673 15.6575063,21.7030141 17.2401,20.7531 C17.5158197,20.5876682 17.8588521,20.5818976 18.1399801,20.7379619 C18.4211081,20.8940263 18.5976218,21.1882157 18.6030301,21.5097119 C18.6084384,21.8312081 18.4419197,22.1311682 18.1662,22.2966 C16.3038608,23.4143727 14.1720295,24.0032867 12,24.0000137 C5.37270001,24.0000137 0,18.6273 0,12 C0,5.37270001 5.37270001,0 12,0 C18.6273,0 24,5.37269999 24,12 C24,14.202 23.4051,16.3191 22.296,18.1671 Z M15.9,9.89999999 C15.9,11.7534 14.586,13.299 12.8289,13.6992 L12.8289,14.7 C12.8289,15.1970563 12.4259563,15.6 11.9289,15.6 C11.4318437,15.6 11.0289,15.1970563 11.0289,14.7 L11.0289,12.9 C11.0289,12.4029437 11.4318437,12 11.9289,12 C13.1325,12 14.1,11.055 14.1,9.89999999 C14.1,8.74499998 13.1325,7.79999998 11.9289,7.80000001 C11.1759,7.80000001 10.4922,8.17260001 10.0959,8.77380001 C9.99392232,8.92834638 9.91329301,9.09596251 9.8562,9.2721 C9.69698857,9.73648327 9.19500084,9.98761062 8.72790306,9.83654851 C8.26080527,9.6854864 8.00093347,9.1879693 8.14380001,8.71829999 C8.2506,8.38769998 8.4018,8.0733 8.59319999,7.7835 C9.32039999,6.67950001 10.5672,6.00000001 11.9292,6.00000001 C14.1171,6.00000001 15.9,7.7412 15.9,9.89999999 Z M12,18.3 C11.5029437,18.3 11.1,17.8970563 11.1,17.4 C11.1,16.9029437 11.5029437,16.5 12,16.5 C12.4970563,16.5 12.9,16.9029437 12.9,17.4 C12.9,17.8970563 12.4970563,18.3 12,18.3 Z" id="形状"></path>
        </g>
    </g>
</svg>