<svg id="帮助" xmlns="http://www.w3.org/2000/svg" width="24" height="24" viewBox="0 0 24 24">
  <path id="帮助-2" data-name="帮助" d="M68.307,54.272a11.589,11.589,0,0,1,4.679.952A12.4,12.4,0,0,1,76.807,57.8a11.94,11.94,0,0,1,2.574,3.808,12.1,12.1,0,0,1,0,9.345,12.074,12.074,0,0,1-6.4,6.382,12.1,12.1,0,0,1-9.345,0,12.111,12.111,0,0,1-6.382-6.382,12.1,12.1,0,0,1,0-9.345A11.94,11.94,0,0,1,59.833,57.8a12.45,12.45,0,0,1,3.808-2.574A11.494,11.494,0,0,1,68.307,54.272Zm.027,20.219a1.584,1.584,0,0,0,1.166-.469,1.552,1.552,0,0,0,.469-1.14,1.636,1.636,0,1,0-3.272,0,1.552,1.552,0,0,0,.469,1.14A1.584,1.584,0,0,0,68.333,74.491Zm1.368-6.6a1.2,1.2,0,0,1,.536-.912Q70.8,66.5,71.5,65.91a9.535,9.535,0,0,0,1.287-1.327,2.918,2.918,0,0,0,.644-1.7,5.836,5.836,0,0,0-.215-1.958,3.836,3.836,0,0,0-.885-1.569,4.351,4.351,0,0,0-1.6-1.046,6.188,6.188,0,0,0-2.293-.389,5.762,5.762,0,0,0-2.722.577,5.668,5.668,0,0,0-1.756,1.394,4.985,4.985,0,0,0-.939,1.689,4.451,4.451,0,0,0-.241,1.461,1.274,1.274,0,0,0,.442,1.019,1.51,1.51,0,0,0,.9.335,1.437,1.437,0,0,0,.885-.268.936.936,0,0,0,.4-.818,2.092,2.092,0,0,1,.2-.791,3.8,3.8,0,0,1,.55-.9,3.153,3.153,0,0,1,.845-.724,2.136,2.136,0,0,1,1.113-.295,2.919,2.919,0,0,1,1.931.6,1.746,1.746,0,0,1,.67,1.515,1.458,1.458,0,0,1-.268.845,4.067,4.067,0,0,1-.684.751q-.416.362-.885.724T68,65.789a4.123,4.123,0,0,0-.7.845,2.054,2.054,0,0,0-.308.992l.027,1.019a1.061,1.061,0,0,0,.375.764,1.466,1.466,0,0,0,.992.389,1.385,1.385,0,0,0,.979-.4,1.107,1.107,0,0,0,.335-.858Z" transform="translate(-56.32 -54.272)" />
</svg>
