<svg id="注单历史" xmlns="http://www.w3.org/2000/svg" width="24" height="24" viewBox="0 0 24 24">
  <g id="组_3612" data-name="组 3612">
    <circle id="椭圆形" cx="12" cy="12" r="12" fill="none"/>
    <path id="路径_2327" data-name="路径 2327" d="M469.508,560a5.508,5.508,0,1,0,5.508,5.508A5.474,5.474,0,0,0,469.508,560Zm1.967,6.689h-2.361a.743.743,0,0,1-.787-.787v-1.574a.787.787,0,0,1,1.574,0v.787h1.574a.787.787,0,1,1,0,1.574Z" transform="translate(-453.162 -547.016)"/>
    <path id="路径_2328" data-name="路径 2328" d="M119.475,50.492a6.683,6.683,0,0,1,6.689-6.689,6.472,6.472,0,0,1,4.721,1.967V35.934A3.9,3.9,0,0,0,126.951,32h-12.59A2.319,2.319,0,0,0,112,34.361V53.246a2.319,2.319,0,0,0,2.361,2.361l7.4-.079A6.49,6.49,0,0,1,119.475,50.492Zm-3.226-13.77h4.407a.791.791,0,0,1,0,1.574h-4.407a.791.791,0,0,1,0-1.574Zm-.708,5.508a.743.743,0,0,1,.787-.787h9.049a.787.787,0,1,1,0,1.574h-9.049A.743.743,0,0,1,115.541,42.23Z" transform="translate(-109.818 -32)"/>
  </g>
</svg>
