<?xml version="1.0" encoding="UTF-8"?>
<svg width="24px" height="24px" viewBox="0 0 24 24" version="1.1" xmlns="http://www.w3.org/2000/svg" xmlns:xlink="http://www.w3.org/1999/xlink">
    <title>记录备份 2</title>
    <g id="页面-1" >
        <g id="记录备份-2" >
            <path d="M21,0 C22.6568542,0 24,1.34314575 24,3 L24,11.559 C24,12.111225 23.552225,12.5588469 23,12.5588469 C22.447775,12.5588469 22.0000845,12.111225 22,11.559 L22,8 L2,8 L2,21 C2,21.527 2.4075,21.959 2.92549999,21.997 L3,22 L10.851,22 C11.403225,22.0000845 11.8508469,22.447775 11.8508469,23 C11.8508469,23.552225 11.403225,24 10.851,24 L3,24 C1.34314575,24 0,22.6568542 0,21 L0,3 C0,1.34314575 1.34314575,0 3,0 L21,0 Z M18.454,12.6835 C19.2345,12.6835 19.9935,12.8495 20.6915,13.1665 C21.0168796,13.3140507 21.2388255,13.6239811 21.2737326,13.9795435 C21.3086398,14.3351059 21.1512051,14.6822818 20.8607326,14.8902935 C20.5702602,15.0983052 20.1908796,15.1355507 19.8655,14.988 C19.4222192,14.786638 18.9408717,14.6827979 18.454,14.6835 C16.534,14.6835 14.97,16.2765 14.97,18.2505 C14.97,20.2245 16.5345,21.8175 18.454,21.8175 C20.374,21.8175 21.938,20.2245 21.938,18.2505 C21.938,17.6982152 22.3857152,17.2505 22.938,17.2505 C23.4902848,17.2505 23.938,17.6982152 23.938,18.2505 C23.938,21.321 21.487,23.8175 18.454,23.8175 C15.4215,23.8175 12.97,21.321 12.97,18.2505 C12.97,15.1805 15.4215,12.6835 18.454,12.6835 L18.454,12.6835 Z M8.28550001,16 C8.83772497,16.0000845 9.28534692,16.447775 9.28534692,17 C9.28534692,17.552225 8.83772497,17.9999155 8.28550001,18 L4.99999999,18 C4.44777503,17.9999155 4.00015308,17.552225 4.00015308,17 C4.00015308,16.447775 4.44777503,16.0000845 4.99999999,16 L8.28550001,16 L8.28550001,16 Z M12.5,11 C13.0522847,11 13.5,11.4477152 13.5,12 C13.5,12.5522848 13.0522847,13 12.5,13 L4.99999998,13 C4.44771524,13 3.99999998,12.5522848 3.99999998,12 C3.99999998,11.4477152 4.44771524,11 4.99999998,11 L12.5,11 L12.5,11 Z M21,1.99999999 L2.99999999,1.99999999 C2.44771525,1.99999999 1.99999999,2.44771525 1.99999999,2.99999999 L1.99999999,5.99999999 L22,5.99999999 L22,2.99999999 C22,2.47650915 21.5965361,2.04150005 21.0745,2.0025 L21,1.99999999 Z" id="形状"></path>
        </g>
    </g>
</svg>