<svg id="导航_首页_选中" xmlns="http://www.w3.org/2000/svg" width="22" height="22" viewBox="0 0 22 22">
  <g id="组_3465" data-name="组 3465" transform="translate(-2)">
    <rect id="矩形_8071" data-name="矩形 8071" width="22" height="22" transform="translate(2)" fill="none"/>
    <path id="主页_1_" data-name="主页 (1)" d="M111.043,69.908l-8.3,6.186a.006.006,0,0,0,0,.005l-.022,11.228c0,.32.151.581.472.581h5a.59.59,0,0,0,.59-.59l.022-3.78a2.252,2.252,0,1,1,4.491.006v3.784a.682.682,0,0,0,.688.579H118.9c.32,0,.449-.259.449-.579V76.1a.006.006,0,0,0,0-.005l-8.3-6.186A.007.007,0,0,0,111.043,69.908Z" transform="translate(-97.721 -67.907)" />
  </g>
</svg>