<?xml version="1.0" encoding="UTF-8"?>
<svg width="24px" height="18px" viewBox="0 0 24 18" version="1.1" xmlns="http://www.w3.org/2000/svg" xmlns:xlink="http://www.w3.org/1999/xlink">
    <title>收起键盘</title>
    <g id="页面-1" stroke="none" stroke-width="1" fill="none" fill-rule="evenodd">
        <g id="收起键盘" fill="#8E8F91" fill-rule="nonzero">
            <path d="M23.2615338,10.7070498 L0.738466177,10.7070498 C0.330610133,10.7070498 0,10.3764319 0,9.9686278 L0,0.738421951 C0,0.330590333 0.330610159,0 0.738466177,0 L23.2615338,0 C23.6693624,0 24,0.33059036 24,0.738421951 L24,9.9686278 C24,10.3764319 23.6693623,10.7070498 23.2615338,10.7070498 Z M23.2615338,0.738421925 L0.738466177,0.738421925 L0.738466177,9.96862778 L23.2615338,9.96862778 L23.2615338,0.738421925 Z M3.69233091,3.69205482 L2.21539853,3.69205482 L2.21539853,2.21526585 L3.69233091,2.21526585 L3.69233091,3.69205482 Z M3.69233091,6.27654544 L2.21539853,6.27654544 L2.21539853,4.79967404 L3.69233091,4.79967404 L3.69233091,6.27654544 Z M3.69233091,8.86100858 L2.21539853,8.86100858 L2.21539853,7.38416465 L3.69233091,7.38416465 L3.69233091,8.86100858 Z M6.27692138,3.69205482 L4.799989,3.69205482 L4.799989,2.21526585 L6.27692138,2.21526585 L6.27692138,3.69205482 Z M6.27692138,6.27654544 L4.799989,6.27654544 L4.799989,4.79967404 L6.27692138,4.79967404 L6.27692138,6.27654544 Z M6.27692138,8.86100858 L4.799989,8.86100858 L4.799989,7.38416465 L6.27692138,7.38416465 L6.27692138,8.86100858 Z M8.86153929,3.69205482 L7.38463438,3.69205482 L7.38463438,2.21526585 L8.86156676,2.21526585 L8.86156676,3.69205482 L8.86153929,3.69205482 Z M8.86153929,6.27654544 L7.38463438,6.27654544 L7.38463438,4.79967404 L8.86156676,4.79967404 L8.86156676,6.27654544 L8.86153929,6.27654544 Z M16.6153931,8.86100858 L7.38463438,8.86100858 L7.38463438,7.38416465 L16.6153931,7.38416465 L16.6153931,8.86100858 Z M19.200011,3.69205482 L17.7230786,3.69205482 L17.7230786,2.21526585 L19.200011,2.21526585 L19.200011,3.69205482 Z M19.200011,6.27654544 L17.7230786,6.27654544 L17.7230786,4.79967404 L19.200011,4.79967404 L19.200011,6.27654544 Z M19.200011,8.86100858 L17.7230786,8.86100858 L17.7230786,7.38416465 L19.200011,7.38416465 L19.200011,8.86100858 Z M21.7846289,3.69205482 L20.3076965,3.69205482 L20.3076965,2.21526585 L21.7846289,2.21526585 L21.7846289,3.69205482 Z M21.7846289,6.27654544 L20.3076965,6.27654544 L20.3076965,4.79967404 L21.7846289,4.79967404 L21.7846289,6.27654544 Z M21.7846289,8.86100858 L20.3076965,8.86100858 L20.3076965,7.38416465 L21.7846289,7.38416465 L21.7846289,8.86100858 Z M15.1384607,4.79967404 L16.6153931,4.79967404 L16.6153931,6.27654544 L15.1384607,6.27654544 L15.1384607,4.79967404 Z M15.1384607,2.21526585 L16.6153931,2.21526585 L16.6153931,3.69205482 L15.1384607,3.69205482 L15.1384607,2.21526585 Z M12.5538428,4.79967404 L14.0307751,4.79967404 L14.0307751,6.27654544 L12.5538428,6.27654544 L12.5538428,4.79967404 Z M12.5538428,2.21526585 L14.0307751,2.21526585 L14.0307751,3.69205482 L12.5538428,3.69205482 L12.5538428,2.21526585 Z M9.96925231,4.79967404 L11.4461847,4.79967404 L11.4461847,6.27654544 L9.96925231,6.27654544 L9.96925231,4.79967404 Z M9.96925231,2.21526585 L11.4461847,2.21526585 L11.4461847,3.69205482 L9.96925231,3.69205482 L9.96925231,2.21526585 Z M8.40248828,13.1385692 L12.0576939,16.7935559 L15.7128996,13.1385692 L16.2350169,13.6607101 L12.0577214,17.8378378 L7.88031605,13.6606826 L8.40248828,13.1385692 Z" id="形状"></path>
        </g>
    </g>
</svg>