<?xml version="1.0" encoding="UTF-8"?>
<svg width="20px" height="14px" viewBox="0 0 20 14" version="1.1" xmlns="http://www.w3.org/2000/svg" xmlns:xlink="http://www.w3.org/1999/xlink">
    <title>删除</title>
    <g id="页面-1" stroke="none" stroke-width="1" fill="none" fill-rule="evenodd">
        <g id="删除" fill="#8E8F91" fill-rule="nonzero">
            <path d="M9.66908798,9.37853108 C9.76594028,9.47538339 9.91121873,9.52380952 10.008071,9.52380952 C10.1049233,9.52380952 10.2502018,9.47538339 10.3470541,9.37853108 L12.3809524,7.34463278 L14.4148507,9.37853108 C14.511703,9.47538339 14.6569814,9.52380952 14.7538337,9.52380952 C14.850686,9.52380952 14.9959645,9.47538339 15.0928168,9.37853108 C15.2865214,9.18482647 15.2865214,8.89426959 15.0928168,8.70056498 L13.0589185,6.66666667 L15.0928168,4.63276837 C15.2865214,4.43906376 15.2865214,4.14850687 15.0928168,3.95480227 C14.8991122,3.76109766 14.6085553,3.76109766 14.4148507,3.95480227 L12.3809524,5.98870057 L10.3470541,3.95480227 C10.1533495,3.76109766 9.86279259,3.76109766 9.66908798,3.95480227 C9.47538337,4.14850687 9.47538337,4.43906376 9.66908798,4.63276837 L11.7029863,6.66666667 L9.66908798,8.70056498 C9.52380952,8.89426959 9.52380952,9.18482647 9.66908798,9.37853108 Z" id="路径"></path>
            <path d="M6.63366337,13.3333333 L19.009901,13.3333333 C19.5544554,13.3333333 20,12.8770596 20,12.3193916 L20,1.01394171 C20,0.456273768 19.5544554,0 19.009901,0 L6.63366337,0 C6.38613862,0 6.13861387,0 0.148514857,6.3878327 C-0.0495049524,6.59062104 -0.0495049524,6.89480354 0.148514857,7.09759188 C6.18811881,13.3333333 6.38613862,13.3333333 6.63366337,13.3333333 Z M6.78217821,1.01394171 L19.009901,1.01394171 L19.009901,12.3193916 L6.78217821,12.3193916 C6.18811881,11.8631179 3.61386139,9.22686945 1.23762376,6.69201522 C3.61386139,4.15716098 6.23762376,1.47021548 6.78217821,1.01394171 Z" id="形状"></path>
        </g>
    </g>
</svg>