<svg xmlns="http://www.w3.org/2000/svg" xmlns:xlink="http://www.w3.org/1999/xlink" width="24" height="24" viewBox="0 0 24 24"><defs><style>.a{fill:none;}.b{fill:url(#a);}</style><linearGradient id="a" y1="0.5" x2="1" y2="0.5" gradientUnits="objectBoundingBox"><stop offset="0" stop-color="#fcb131"/><stop offset="1" stop-color="#ffe64d"/></linearGradient></defs><rect class="a" width="24" height="24"/><path class="b" d="M84.286,96.761H79.841l2.418-1.813a1.066,1.066,0,1,0-1.279-1.706l-4.16,3.12-4.16-3.12a1.067,1.067,0,1,0-1.28,1.706L73.8,96.761H69.353a2.133,2.133,0,0,0-2.133,2.133v10.667a2.133,2.133,0,0,0,2.133,2.133H84.286a2.133,2.133,0,0,0,2.133-2.133V98.895A2.133,2.133,0,0,0,84.286,96.761Zm-4.1,8.07-4.614,3.077c-.491.327-.889.11-.889-.47v-6.4c0-.587.4-.8.889-.47l4.614,3.076A.662.662,0,0,1,80.189,104.832Z" transform="translate(-64.82 -90.627)"/></svg>