<svg id="视频-不亮" xmlns="http://www.w3.org/2000/svg" width="24" height="24" viewBox="0 0 24 24">
  <g id="组_3607" data-name="组 3607">
    <rect id="矩形_8306" data-name="矩形 8306" width="24" height="24" fill="none"/>
    <path id="视频" d="M-5445.271-299.783a3.333,3.333,0,0,1-3.333-3.334v-12.2h22.665v12.2a3.332,3.332,0,0,1-3.332,3.334Zm5.915-11.731c-.6,0-1.247.27-1.247,1.032v5.827c0,.764.672,1.034,1.247,1.034a.512.512,0,0,0,.053,0,1.236,1.236,0,0,0,.619-.164l4.74-2.738a1.178,1.178,0,0,0,.624-1.041,1.175,1.175,0,0,0-.624-1.04l-4.74-2.752a1.412,1.412,0,0,0-.65-.162Zm12.65-4.97-3.936-4.633h1.372a3.332,3.332,0,0,1,3.332,3.334v1.3Zm-1.335,0h-4.465l-3.937-4.633h4.467l3.938,4.631,0,0Zm-5.8,0h-4.45l-3.937-4.633h4.465l3.925,4.631v0Zm-5.8,0h-4.451l-3.293-3.875a3.318,3.318,0,0,1,2.116-.758h1.707l3.923,4.631,0,0Zm-5.775,0h-3.186v-1.3a3.316,3.316,0,0,1,.535-1.813l2.651,3.109,0,0Z" transform="translate(5449.27 322.451)"/>
  </g>
</svg>