<?xml version="1.0" encoding="UTF-8"?>
<svg width="24px" height="24px" viewBox="0 0 24 24" version="1.1" xmlns="http://www.w3.org/2000/svg" xmlns:xlink="http://www.w3.org/1999/xlink">
    <defs>
        <linearGradient x1="100%" y1="50%" x2="0%" y2="50%" id="linearGradient-1">
            <stop stop-color="#FFC300" offset="0%"></stop>
            <stop stop-color="#FFA902" offset="100%"></stop>
        </linearGradient>
    </defs>
    <g id="页面-2" stroke="none" stroke-width="1" fill="none" fill-rule="evenodd">
        <g id="live1">
            <rect id="矩形_36" x="0" y="0" width="24" height="24"></rect>
            <path d="M19.466,6.134 L15.021,6.134 L17.439,4.321 C17.9100989,3.9678139 18.0056861,3.29959889 17.6525,2.8285 C17.2993139,2.35740111 16.6310989,2.2618139 16.16,2.615 L12,5.735 L7.84,2.615 C7.53627149,2.37077714 7.12354916,2.31158486 6.76342304,2.46059826 C6.40329692,2.60961167 6.15306714,2.94312105 6.11070426,3.33055001 C6.06834138,3.71797897 6.24058581,4.09768321 6.56,4.321 L8.98,6.134 L4.533,6.134 C3.35497663,6.134 2.4,7.08897663 2.4,8.267 L2.4,18.934 C2.4,20.1120234 3.35497663,21.067 4.533,21.067 L19.466,21.067 C20.6440234,21.067 21.5990002,20.1120234 21.5990002,18.934 L21.5990002,8.268 C21.5992653,7.70211999 21.3746563,7.15932615 20.9746124,6.75909475 C20.5745686,6.35886334 20.0318801,6.13399994 19.466,6.134 L19.466,6.134 Z M15.366,14.204 L10.752,17.281 C10.261,17.608 9.863,17.391 9.863,16.811 L9.863,10.411 C9.863,9.824 10.263,9.611 10.752,9.941 L15.366,13.017 C15.5926481,13.1277985 15.7366191,13.3577861 15.7372583,13.6100663 C15.7378933,13.8623464 15.5950857,14.0930583 15.369,14.205 L15.366,14.204 Z" id="直播-2" fill="url(#linearGradient-1)" fill-rule="nonzero"></path>
        </g>
    </g>
</svg>