<svg id="LIVE" xmlns="http://www.w3.org/2000/svg" width="24" height="24" viewBox="0 0 24 24">
  <g id="组_3614" data-name="组 3614">
    <rect id="矩形_1132" data-name="矩形 1132" width="24" height="24" fill="none"/>
    <g id="组_3096" data-name="组 3096" transform="translate(0 3)">
      <path id="矩形_1118" data-name="矩形 1118" d="M3.429,2A1.876,1.876,0,0,0,1.714,4V15a1.876,1.876,0,0,0,1.714,2H20.571a1.876,1.876,0,0,0,1.714-2V4a1.876,1.876,0,0,0-1.714-2H3.429m0-2H20.571A3.747,3.747,0,0,1,24,4V15a3.747,3.747,0,0,1-3.429,4H3.429A3.747,3.747,0,0,1,0,15V4A3.747,3.747,0,0,1,3.429,0Z" transform="translate(0 0)" fill="#5a5a5a"/>
      <path id="路径_2321" data-name="路径 2321" d="M.84,0H4.906V-1.4H2.085V-7H.84ZM5.5,0H6.742V-7H5.5ZM9.555.05h1.1L12.942-7H11.6L10.121-2.07,8.641-7H7.267ZM13.411,0H17.72V-1.37H14.648V-2.84h2.668V-4.21H14.648V-5.63H17.68V-7H13.411Z" transform="translate(3 13)" fill="#5a5a5a"/>
    </g>
  </g>
</svg>
