<svg xmlns="http://www.w3.org/2000/svg" width="14" height="14" viewBox="0 0 14 14">
    <path data-name="loading (1)" d="M3.719 9.625a.654.654 0 0 0-.464.192L1.942 11.13a.656.656 0 1 0 .928.928l1.312-1.313a.656.656 0 0 0-.464-1.12zM3.063 7a.656.656 0 0 0-.656-.656H.656a.656.656 0 1 0 0 1.313h1.75A.656.656 0 0 0 3.063 7zM2.87 1.942a.656.656 0 1 0-.928.928l1.313 1.313a.656.656 0 1 0 .928-.928zm7.411 2.433a.654.654 0 0 0 .464-.192l1.313-1.313a.656.656 0 1 0-.928-.928L9.817 3.255a.656.656 0 0 0 .464 1.12zm.464 5.442a.656.656 0 1 0-.928.928l1.313 1.312a.656.656 0 1 0 .928-.928zM7 10.938a.656.656 0 0 0-.656.656v1.75a.656.656 0 0 0 1.313 0v-1.75A.656.656 0 0 0 7 10.938zm6.344-4.594h-1.75a.656.656 0 0 0 0 1.313h1.75a.656.656 0 0 0 0-1.312zM7 0a.656.656 0 0 0-.656.656v1.75a.656.656 0 0 0 1.313 0V.656A.656.656 0 0 0 7 0z" style="fill:#feba00"/>
</svg>
