<svg id="锁" xmlns="http://www.w3.org/2000/svg" width="24" height="24" viewBox="0 0 24 24">
  <g id="组_3631" data-name="组 3631">
    <path id="锁-2" data-name="锁" d="M-2574.4,24a1.679,1.679,0,0,1-1.6-1.742V11.628a1.68,1.68,0,0,1,1.6-1.742h.854V6.966A6.87,6.87,0,0,1-2566.46,0a6.87,6.87,0,0,1,7.081,6.966v2.92h.63a1.68,1.68,0,0,1,1.605,1.742v10.63A1.679,1.679,0,0,1-2558.749,24Zm.708-2.5h14.232V12.385h-14.232Zm2.459-14.536v2.92h9.536V6.966A4.473,4.473,0,0,0-2566.46,2.5,4.472,4.472,0,0,0-2571.229,6.966Z" transform="translate(2578.572)" fill="#5a5a5a"/>
    <rect id="矩形_8184" data-name="矩形 8184" width="24" height="24" fill="none"/>
  </g>
</svg>
