<?xml version="1.0" encoding="UTF-8"?>
<svg width="24px" height="24px" viewBox="0 0 24 24" version="1.1" xmlns="http://www.w3.org/2000/svg" xmlns:xlink="http://www.w3.org/1999/xlink">
    <title>编组 4</title>
    <g id="页面-1" stroke="none" stroke-width="1"  fill-rule="evenodd">
        <g id="编组-2" transform="translate(-12.000000, -116.000000)">
            <g id="编组-4" transform="translate(12.000000, 116.000000)">
                <g id="编组-3备份" transform="translate(1.000000, 0.000000)">
                    <path d="M4.80795892,2.12935565 C5.06401369,2.36384952 5.06401369,2.73808691 4.80795892,2.95611655 C3.64277666,3.97254296 2.81683618,4.9202886 2.33013747,5.79935346 C1.97728722,6.43666409 1.71563044,7.07975072 1.47656379,8.11770315 C1.41610622,8.38019096 1.30456994,8.87631127 1.14195495,9.60606409 C1.0380423,10.0695339 0.671373691,10.0433885 0.30999055,9.93084543 C-0.0513925895,9.81830232 -0.0139108364,9.57991874 0.0218117277,9.20717398 C0.213930943,7.55579432 0.645496718,6.19994749 1.31650905,5.1396335 C1.59277033,4.70309354 1.98469164,4.05404498 2.65145634,3.36944884 C2.88422,3.13046033 3.28560701,2.75966924 3.85561736,2.25707559 C4.04093758,2.00428181 4.55190414,1.89486178 4.80795892,2.12935565 Z" id="矩形" ></path>
                    <path d="M21.8079589,2.12935565 C22.0640137,2.36384952 22.0640137,2.73808691 21.8079589,2.95611655 C20.6427767,3.97254296 19.8168362,4.9202886 19.3301375,5.79935346 C18.9772872,6.43666409 18.7156304,7.07975072 18.4765638,8.11770315 C18.4161062,8.38019096 18.3045699,8.87631127 18.141955,9.60606409 C18.0380423,10.0695339 17.6713737,10.0433885 17.3099906,9.93084543 C16.9486074,9.81830232 16.9860892,9.57991874 17.0218117,9.20717398 C17.2139309,7.55579432 17.6454967,6.19994749 18.3165091,5.1396335 C18.5927703,4.70309354 18.9846916,4.05404498 19.6514563,3.36944884 C19.88422,3.13046033 20.285607,2.75966924 20.8556174,2.25707559 C21.0409376,2.00428181 21.5519041,1.89486178 21.8079589,2.12935565 Z" id="矩形"  transform="translate(19.500000, 6.000000) scale(-1, 1) translate(-19.500000, -6.000000) "></path>
                    <path d="M11,3 C14.8659932,3 18,6.13400675 18,10 L18,16 L18,16 L4,16 L4,10 C4,6.13400675 7.13400675,3 11,3 Z" id="矩形" ></path>
                    <rect id="矩形"  x="1" y="17" width="20" height="4" rx="2"></rect>
                    <polygon id="矩形"  points="4 16 18 16 19.9790306 17.2507401 2.04248238 17.2507401"></polygon>
                    <rect id="矩形"  x="9.5" y="0.5" width="3" height="4" rx="1.5"></rect>
                    <path d="M9,21 L14,21 L14,21.5 C14,22.8807119 12.8807119,24 11.5,24 C10.1192881,24 9,22.8807119 9,21.5 L9,21 L9,21 Z" id="矩形" ></path>
                </g>
            </g>
        </g>
    </g>
</svg>