<?xml version="1.0" encoding="UTF-8"?>
<svg width="24px" height="24px" viewBox="0 0 24 24" version="1.1" xmlns="http://www.w3.org/2000/svg" xmlns:xlink="http://www.w3.org/1999/xlink">
    <g id="页面-2" stroke="none" stroke-width="1" fill-rule="evenodd">
        <g id="unSave">
            <path d="M12.768508,2.60509723 L12.5496286,1.71274595 C12.5110367,1.55538316 12.367181,1.43999626 12.1999975,1.43999626 C12.0326699,1.43999626 11.8888143,1.55538316 11.8502224,1.71274595 L11.631343,2.60508283 L10.7298765,2.78256237 C7.25820393,3.46598459 4.63998834,6.52879903 4.63998834,10.1999687 L4.63998834,20.159962 L11.8399984,20.159962 L11.8399984,22.2000047 C11.8399984,22.3987242 12.001134,22.5600037 12.1999975,22.5600037 C12.398861,22.5600037 12.5599965,22.3987242 12.5599965,22.2000047 L12.5599965,20.159962 L19.7599778,20.159962 L19.7599778,10.1999687 C19.7599778,6.52879903 17.1417766,3.46598459 13.6700897,2.78256237 L12.768508,2.60509723 Z M2,21.5999582 L2,19.1999165 L3.19999208,19.1999165 L3.19999208,10.1999687 C3.19999208,5.82757845 6.31795837,2.18343752 10.4517412,1.36968124 C10.6446287,0.583356883 11.3541725,0 12.1999975,0 C13.0457073,0 13.7553374,0.583356883 13.9481529,1.36968124 C18.0819502,2.18345192 21.1999741,5.82759285 21.1999741,10.1999687 L21.1999741,19.1999165 L22.399923,19.1999165 L22.399923,21.5999582 L14,21.5999582 L14,22.2000047 C14,23.1940341 13.1940269,24 12.1999975,24 C11.2058673,24 10.3999878,23.1940341 10.3999878,22.2000047 L10.3999878,21.5999582 L2,21.5999582 Z" id="形状"></path>
        </g>
    </g>
</svg>