<?xml version="1.0" encoding="UTF-8"?>
<svg width="24px" height="24px" viewBox="0 0 24 24" version="1.1" xmlns="http://www.w3.org/2000/svg" xmlns:xlink="http://www.w3.org/1999/xlink">
    <g id="页面-2" stroke="none" stroke-width="1" fill-rule="evenodd">
        <g id="save-hover">
            <path d="M21.1998656,10.1999706 C21.1998656,5.8275813 18.0819837,2.18345066 13.9481909,1.36968031 C13.7553089,0.583368528 13.0457542,0 12.1999706,0 C11.3541684,0 10.6446136,0.583368528 10.4517317,1.36968031 C6.3179575,2.18345066 3.20000093,5.8275813 3.20000093,10.1999519 L3.20000093,19.1998843 L2,19.1998843 L2,21.5998488 L10.3999692,21.5998488 L10.3999692,22.1999799 C10.3999692,23.1939763 11.2058622,24 12.1999706,24 C13.194079,24 13.9999533,23.1939763 13.9999533,22.1999799 L13.9999533,21.5998488 L22.3999412,21.5998488 L22.3999412,19.1998843 L21.1998656,19.1998843 L21.1998656,10.1999706 Z" id="路径"></path>
        </g>
    </g>
</svg>