<?xml version="1.0" encoding="UTF-8"?>
<svg width="24px" height="24px" viewBox="0 0 24 24" version="1.1" xmlns="http://www.w3.org/2000/svg" xmlns:xlink="http://www.w3.org/1999/xlink">
    <title>love</title>
    <defs>
        <linearGradient x1="100%" y1="50%" x2="0%" y2="50%" id="linearGradient-1">
            <stop stop-color="#FFC300" offset="0%"></stop>
            <stop stop-color="#FFA902" offset="100%"></stop>
        </linearGradient>
    </defs>
    <g id="页面-2" stroke="none" stroke-width="1" fill="none" fill-rule="evenodd">
        <g id="love" fill="url(#linearGradient-1)" fill-rule="nonzero">
            <path d="M12,0 C12.8284271,-1.52179594e-16 13.5,0.671572875 13.5,1.5 L13.5,2.5 C13.5,2.55426077 13.4971189,2.60784862 13.4915014,2.66061893 C16.6411243,3.34293573 19,6.14599539 19,9.5 L19,15.5 L20.9790306,16.7507401 C21.5846527,17.0924382 22,17.7477143 22,18.5 C22,19.6045695 21.1045695,20.5 20,20.5 L15,20.5 L15,21 C15,22.3807119 13.8807119,23.5 12.5,23.5 C11.1192881,23.5 10,22.3807119 10,21 L10,20.5 L4,20.5 C2.8954305,20.5 2,19.6045695 2,18.5 C2,17.7215797 2.44470708,17.0470264 3.09392187,16.7165393 L5,15.5 L5,9.5 C5,6.14599539 7.35887569,3.34293573 10.5081277,2.65932039 C10.5028811,2.60784862 10.5,2.55426077 10.5,2.5 L10.5,1.5 C10.5,0.671572875 11.1715729,1.52179594e-16 12,0 Z M5.80795892,1.62935565 C6.06401369,1.86384952 6.06401369,2.23808691 5.80795892,2.45611655 C4.64277666,3.47254296 3.81683618,4.4202886 3.33013747,5.29935346 C2.97728722,5.93666409 2.71563044,6.57975072 2.47656379,7.61770315 C2.41610622,7.88019096 2.30456994,8.37631127 2.14195495,9.10606409 C2.0380423,9.5695339 1.67137369,9.5433885 1.30999055,9.43084543 C0.948607411,9.31830232 0.986089164,9.07991874 1.02181173,8.70717398 C1.21393094,7.05579432 1.64549672,5.69994749 2.31650905,4.6396335 C2.59277033,4.20309354 2.98469164,3.55404498 3.65145634,2.86944884 C3.88422,2.63046033 4.28560701,2.25966924 4.85561736,1.75707559 C5.04093758,1.50428181 5.55190414,1.39486178 5.80795892,1.62935565 Z M18.1920411,1.62935565 C18.4480959,1.39486178 18.9590624,1.50428181 19.1443826,1.75707559 C19.714393,2.25966924 20.11578,2.63046033 20.3485437,2.86944884 C21.0153084,3.55404498 21.4072297,4.20309354 21.6834909,4.6396335 C22.3545033,5.69994749 22.7860691,7.05579432 22.9781883,8.70717398 C23.0139108,9.07991874 23.0513926,9.31830232 22.6900094,9.43084543 C22.3286263,9.5433885 21.9619577,9.5695339 21.858045,9.10606409 C21.6954301,8.37631127 21.5838938,7.88019096 21.5234362,7.61770315 C21.2843696,6.57975072 21.0227128,5.93666409 20.6698625,5.29935346 C20.1831638,4.4202886 19.3572233,3.47254296 18.1920411,2.45611655 C17.9359863,2.23808691 17.9359863,1.86384952 18.1920411,1.62935565 Z" id="形状结合"></path>
        </g>
    </g>
</svg>