<svg id="最爱赛事" xmlns="http://www.w3.org/2000/svg" width="24" height="24" viewBox="0 0 24 24">
  <g id="组_3617" data-name="组 3617">
    <rect id="矩形_22" data-name="矩形 22" width="24" height="24" fill="none"/>
    <path id="_3.1收藏-选中" data-name="3.1收藏-选中" d="M97.928,84.3a.787.787,0,0,0-.626-.528L90.664,82.75,87.7,76.4a.786.786,0,0,0-.71-.453h0a.787.787,0,0,0-.71.45l-3,6.343-6.658,1a.786.786,0,0,0-.431,1.322l4.823,4.962-1.151,6.991a.786.786,0,0,0,1.154.816l5.937-3.266,5.925,3.287a.783.783,0,0,0,.381.1.769.769,0,0,0,.451-.144.787.787,0,0,0,.324-.768L92.909,90.04l4.835-4.94A.788.788,0,0,0,97.928,84.3Z" transform="translate(-74.969 -74.947)" fill="#5a5a5a"/>
  </g>
</svg>
