<svg xmlns="http://www.w3.org/2000/svg" xmlns:xlink="http://www.w3.org/1999/xlink" width="18" height="18" viewBox="0 0 18 18"><defs><style>.a{fill:none;}.b{fill:url(#a);}</style><linearGradient id="a" x1="0.122" y1="0.5" x2="0.87" y2="0.5" gradientUnits="objectBoundingBox"><stop offset="0" stop-color="#fcb131"/><stop offset="1" stop-color="#ffe64d"/></linearGradient></defs><rect class="a" width="18" height="18"/><path class="b" d="M7.6,1.9A1,1,0,0,1,9.4,1.9l1.411,2.973a1,1,0,0,0,.78.563l3.275.407a1,1,0,0,1,.557,1.725L13.033,9.794a1,1,0,0,0-.3.923l.619,3.2a1,1,0,0,1-1.46,1.068L8.978,13.4a1,1,0,0,0-.957,0L5.11,14.985a1,1,0,0,1-1.46-1.068l.619-3.2a1,1,0,0,0-.3-.923L1.573,7.572A1,1,0,0,1,2.13,5.846l3.275-.407a1,1,0,0,0,.78-.563Z" transform="translate(0.5 1)"/></svg>