<svg xmlns="http://www.w3.org/2000/svg" width="24" height="24" viewBox="0 0 24 24">
    <path data-name="矩形 8369" style="fill:none" d="M0 0h24v24H0z"/>
    <path d="m737.063 617 1.134.189c.189.5.378.819.567 1.323a1.614 1.614 0 0 1-.567 0s.309 1.277-1.323.945c-.063.63-.126 1.449-.189 2.079.352-.164.919-.907 2.079-1.7a4.1 4.1 0 0 1 2.268-1.323c.938.162 2.987 2 3.969 3.591-.416 1.893-1.765.1-3.591-.189a2.244 2.244 0 0 0-.567 1.323c-.653.709-1.247 3.128-1.7 4.724.63.315 1.26.819 1.89 1.134.224 2.009.262 4.07-.945 5.1h-.188v-1.323c.613.157.745-.678.567-2.646-.263-.363-.019-.491-.378-.756a16.557 16.557 0 0 0-2.457-.378 5.441 5.441 0 0 1 .756 2.835c0 .126-.189.441-.189.567a5.883 5.883 0 0 1-4.346-.567l.378-.567.567-.189a3.623 3.623 0 0 1 .378.756 3.538 3.538 0 0 0 2.457-.189v-.189c-.658-.977-1.512-2.457-1.512-2.457a14.085 14.085 0 0 1-4.724-1.512l.189 2.457a9.861 9.861 0 0 0 1.89 1.134c.011 0 .378 1.89.378 1.89a11.355 11.355 0 0 1 1.7 1.323l-.189.378h-.756a2.383 2.383 0 0 1-.189-.756h-.756s-2.505-2.618-3.213-3.4c-.468-.27-.88-.011-1.323-.189.195-1.382.988-1.806-.189-2.457-1.97-.564-3.2-2.1-2.457-4.346-.273-.14-.619-.175-.756.189-.693 1.842-1.188 3.322-2.835 3.968.189-.315.756-.819.945-1.134-.756.315-1.89.819-2.646 1.134v-.189l.378-.189 1.134-1.134c-.55.2-1.212.725-1.7.567l.378-.189 1.134-1.134-1.514.756.567-.756-.567.189c.941-1.644 3.8-4.162 5.858-3.024.7-.92 2.648-1.163 3.78-.945 1.508.29 3.019.972 4.346.756v-.756a5.238 5.238 0 0 1-2.646-.756l-.189-1.512.756-.945 3.591-.378c-.032-.44.126-.692.567-1.133zm-4.724 14.551.567.567.189-.189-.378-.378zm2.835-11.149.567.378v-.38z" transform="translate(-721 -614.402)" />
</svg>
