<svg id="刷新" xmlns="http://www.w3.org/2000/svg" width="24" height="24" viewBox="0 0 24 24">
  <g id="组_3610" data-name="组 3610">
    <rect id="矩形_316" data-name="矩形 316" width="24" height="24" fill="none"/>
    <path id="刷新_2_" data-name="刷新 (2)" d="M127.87,116.12a7.516,7.516,0,0,1-6.823-2.024,7.427,7.427,0,0,1-.562-9.935v1.387a.75.75,0,1,0,1.5,0v-3a.629.629,0,0,0-.225-.525.74.74,0,0,0-.525-.225h-3a.75.75,0,1,0,0,1.5h1.049a8.9,8.9,0,0,0,.674,11.847,9.009,9.009,0,0,0,8.248,2.436.99.99,0,0,0,.338-.187.725.725,0,0,0,0-1.051.606.606,0,0,0-.675-.225Zm6.6-1.837h-1.012A9.013,9.013,0,0,0,125.02,99.85a.66.66,0,0,0-.487.225.725.725,0,0,0,0,1.049.713.713,0,0,0,.713.187,7.462,7.462,0,0,1,6.935,12.034v-1.387a.75.75,0,1,0-1.5,0v3a.63.63,0,0,0,.225.525.741.741,0,0,0,.525.225h3a.752.752,0,0,0,.75-.749.66.66,0,0,0-.713-.675Z" transform="translate(-114.345 -96.762)"/>
  </g>
</svg>