<svg id="赛果_比分" data-name="赛果&amp;比分" xmlns="http://www.w3.org/2000/svg" width="24" height="24" viewBox="0 0 24 24">
  <g id="组_3613" data-name="组 3613">
    <circle id="椭圆形" cx="12" cy="12" r="12" fill="none"/>
    <path id="路径_2336" data-name="路径 2336" d="M20,21.334H4a4,4,0,0,1-4-4V4A4,4,0,0,1,4,0H20a4,4,0,0,1,4,4V17.334A4,4,0,0,1,20,21.334ZM6.666,6.667A2.638,2.638,0,0,0,4.327,7.915a5.72,5.72,0,0,0-.793,3.2,5.72,5.72,0,0,0,.793,3.2,2.657,2.657,0,0,0,2.339,1.248,2.7,2.7,0,0,0,2.34-1.248,5.73,5.73,0,0,0,.792-3.2,5.73,5.73,0,0,0-.792-3.2A2.675,2.675,0,0,0,6.666,6.667ZM18.209,8.359v6.875h1.405V6.667H18.558a5.052,5.052,0,0,1-1.068.839,5.56,5.56,0,0,1-1.236.505V9.4a4.835,4.835,0,0,0,1.953-1.041Zm-5.316,4.52a1.051,1.051,0,0,0-.733.281,1.029,1.029,0,0,0,0,1.44,1.059,1.059,0,0,0,.733.293,1.019,1.019,0,0,0,.733-.28.95.95,0,0,0,.307-.733.983.983,0,0,0-.294-.72A1.04,1.04,0,0,0,12.893,12.88Zm0-4.879a1.055,1.055,0,0,0-.733.28,1.029,1.029,0,0,0,0,1.44,1.059,1.059,0,0,0,.733.293,1.019,1.019,0,0,0,.733-.28A.946.946,0,0,0,13.933,9a.983.983,0,0,0-.294-.72A1.044,1.044,0,0,0,12.893,8ZM6.666,14.383a1.493,1.493,0,0,1-1.44-1.14,6.408,6.408,0,0,1-.288-2.124A6.273,6.273,0,0,1,5.226,9a1.477,1.477,0,0,1,1.44-1.14A1.5,1.5,0,0,1,8.106,9a6.273,6.273,0,0,1,.288,2.124,6.408,6.408,0,0,1-.288,2.124A1.5,1.5,0,0,1,6.666,14.383Z" transform="translate(0 1.333)"/>
  </g>
</svg>