<svg id="比分" xmlns="http://www.w3.org/2000/svg" width="24" height="24" viewBox="0 0 24 24">
  <rect id="矩形_38" data-name="矩形 38" width="24" height="24" fill="none"/>
  <path id="路径_2325" data-name="路径 2325" d="M2.409,18.235a.938.938,0,0,1-.937-.937V17a.938.938,0,0,1,.937-.937H5.466V14.607H.937A.938.938,0,0,1,0,13.67V.938A.938.938,0,0,1,.937,0H18.263A.938.938,0,0,1,19.2.938V13.67a.938.938,0,0,1-.937.937H13.734V16.06h3a.938.938,0,0,1,.938.937v.3a.938.938,0,0,1-.937.937Zm-.169-6.947h1.5V3.525h-1.5Zm9.45-.282h5.231v-1.5H13.19V7.913h3.731V3.319H11.691v1.5h3.73V6.413h-3.73ZM6.253,9.413l1.312,1.312L8.878,9.413,7.565,8.1Zm0-4.013L7.565,6.713,8.878,5.4,7.565,4.088Z" transform="translate(2.4 2.4)" fill="#5a5a5a"/>
</svg>
