<?xml version="1.0" encoding="UTF-8"?>
<svg width="24px" height="24px" viewBox="0 0 24 24" version="1.1" xmlns="http://www.w3.org/2000/svg" xmlns:xlink="http://www.w3.org/1999/xlink">
    <title>score1</title>
    <defs>
        <linearGradient x1="100%" y1="50%" x2="0%" y2="50%" id="linearGradient-1">
            <stop stop-color="#FFC300" offset="0%"></stop>
            <stop stop-color="#FFA902" offset="100%"></stop>
        </linearGradient>
    </defs>
    <g id="页面-2" stroke="none" stroke-width="1" fill="none" fill-rule="evenodd">
        <g id="score1">
            <rect id="矩形_38" x="0" y="0" width="24" height="24"></rect>
            <path d="M4.809,20.635 C4.29173766,20.6344488 3.87255116,20.2152623 3.872,19.698 L3.872,19.4 C3.87255116,18.8827377 4.29173766,18.4635512 4.809,18.463 L7.866,18.463 L7.866,17.007 L3.337,17.007 C2.81973766,17.0064488 2.40055116,16.5872623 2.4,16.07 L2.4,3.338 C2.4,2.82034718 2.81934747,2.40055187 3.337,2.4 L20.663,2.4 C21.1806525,2.40055187 21.6,2.82034718 21.6,3.338 L21.6,16.07 C21.5994488,16.5872623 21.1802623,17.0064488 20.663,17.007 L16.134,17.007 L16.134,18.46 L19.134,18.46 C19.6516528,18.4599997 20.0714481,18.8793475 20.072,19.397 L20.072,19.697 C20.0714488,20.2142623 19.6522623,20.6334488 19.135,20.634 L4.809,20.635 Z M4.64,13.688 L6.14,13.688 L6.14,5.925 L4.64,5.925 L4.64,13.688 Z M14.09,13.406 L19.321,13.406 L19.321,11.906 L15.59,11.906 L15.59,10.313 L19.321,10.313 L19.321,5.719 L14.091,5.719 L14.091,7.219 L17.821,7.219 L17.821,8.813 L14.091,8.813 L14.09,13.406 Z M8.653,11.813 L9.965,13.125 L11.278,11.813 L9.965,10.5 L8.653,11.813 Z M8.653,7.8 L9.965,9.113 L11.278,7.8 L9.965,6.488 L8.653,7.8 Z" id="路径_2325" fill="url(#linearGradient-1)" fill-rule="nonzero"></path>
        </g>
    </g>
</svg>