<?xml version="1.0" encoding="UTF-8"?>
<svg width="24px" height="24px" viewBox="0 0 24 24" version="1.1" xmlns="http://www.w3.org/2000/svg" xmlns:xlink="http://www.w3.org/1999/xlink">
    <g id="页面-3" stroke="none" stroke-width="1" fill-rule="evenodd">
        <g id="score1">
            <path d="M20.663,2.4 C21.1806525,2.40055187 21.6,2.82034718 21.6,3.338 L21.6,16.07 C21.5994488,16.5872623 21.1802623,17.0064488 20.663,17.007 L16.134,17.007 L16.134,18.46 L19.134,18.46 C19.6516528,18.4599997 20.0714481,18.8793475 20.072,19.397 L20.072,19.697 C20.0714488,20.2142623 19.6522623,20.6334488 19.135,20.634 L4.809,20.635 C4.29173766,20.6344488 3.87255116,20.2152623 3.872,19.698 L3.872,19.4 C3.87255116,18.8827377 4.29173766,18.4635512 4.809,18.463 L7.866,18.463 L7.866,17.007 L3.337,17.007 C2.81973766,17.0064488 2.40055116,16.5872623 2.4,16.07 L2.4,3.338 C2.4,2.82034718 2.81934747,2.40055187 3.337,2.4 L20.663,2.4 Z M16.1940573,5.9833332 C15.881098,5.98972014 15.5745257,6.03123513 15.2743403,6.10787821 C14.9358334,6.19729512 14.6292611,6.35377476 14.3546234,6.57731707 C14.1099087,6.7822045 13.9163657,7.04135537 13.7893807,7.33416747 C13.6616422,7.64073979 13.597773,7.96008594 13.597773,8.29220596 C13.5913861,8.58600444 13.6360945,8.8702225 13.7318984,9.14486021 C13.8021545,9.33646791 13.8979584,9.51210829 14.0193099,9.67178138 C14.2033226,9.9006354 14.4233541,10.0980166 14.6707761,10.2561849 C14.9822077,10.4470618 15.312979,10.604419 15.6575557,10.7256237 L15.84597,10.7998717 C16.0916143,10.904067 16.3241956,11.0367027 16.5389511,11.1950626 C16.7174017,11.3285641 16.8236203,11.5374607 16.8263627,11.7603053 C16.8169465,11.9388812 16.7336445,12.1054852 16.5964335,12.2201638 C16.4284894,12.3464894 16.2220042,12.4108044 16.01203,12.4021911 C15.6348526,12.4031408 15.2598582,12.344952 14.9007053,12.2297441 C14.5621984,12.1211665 14.2396588,11.9710737 13.9330865,11.7794661 L13.4349064,13.2165238 C14.2736171,13.7291379 15.2399105,13.9947856 16.2227984,13.9829546 C16.6124008,13.9829546 16.9924227,13.9158919 17.3628642,13.7817665 C17.6837685,13.6634269 17.9771608,13.4808716 18.2250989,13.2452649 C18.4614151,13.0025619 18.633862,12.7215372 18.7424397,12.4021911 C18.8190827,12.1403272 18.8605977,11.868883 18.8669847,11.5878584 C18.8669847,11.3004468 18.8254697,11.0162287 18.7424397,10.7352041 C18.6530228,10.4797272 18.5157039,10.2497979 18.3304831,10.0454164 C18.1644231,9.8857433 17.9823958,9.74203752 17.7844012,9.61429907 C17.4331204,9.40991754 17.0658723,9.23747061 16.6826569,9.09695829 C16.3760846,9.00115444 16.09506,8.8638356 15.839583,8.68500174 C15.7501661,8.61474559 15.6767165,8.53171558 15.6192342,8.43591173 C15.5745257,8.35288172 15.5521715,8.2634648 15.5521715,8.16766095 C15.5552348,7.98807783 15.6538278,7.82375629 15.8108419,7.73654364 C15.9960627,7.62796595 16.2004442,7.57367709 16.4239865,7.57367709 C16.9710161,7.57957323 17.5114866,7.69352784 18.0143304,7.90899056 L18.4071262,6.4910936 C17.7045646,6.15258668 16.966875,5.9833332 16.1940573,5.9833332 Z M8.17527515,6.1749409 L6.09633163,6.1749409 L8.2040163,13.7913469 L11.1260337,13.7913469 L13.2432987,6.1749409 L11.1547748,6.1749409 L9.67939557,12.1818422 L9.6602348,12.1818422 L8.17527515,6.1749409 Z" id="路径_2325" fill-rule="nonzero"></path>
        </g>
    </g>
</svg>