<?xml version="1.0" encoding="UTF-8"?>
<svg width="24px" height="24px" viewBox="0 0 24 24" version="1.1" xmlns="http://www.w3.org/2000/svg" xmlns:xlink="http://www.w3.org/1999/xlink">
    <title>编组 3</title>
    <g id="问题4-悬浮样式" stroke="none" stroke-width="1" fill="none" fill-rule="evenodd">
        <g id="编组" transform="translate(0.000000, 3.000000)">
            <circle id="椭圆形" fill="#00C22B" cx="10.4157384" cy="9.42376327" r="9.42376327"></circle>
            <path d="M14.4992448,6.19214278 C14.5250586,6.21525182 14.5495761,6.23976927 14.5726851,6.26558307 C14.9716881,6.71128694 14.9716881,7.38575016 14.5726851,7.83145403 L9.57361112,13.4187305 C9.53931436,13.4728329 9.50016514,13.5247667 9.45616344,13.5739186 C9.26476407,13.7877201 8.99765199,13.8934648 8.73162875,13.8869068 C8.50862445,13.8864257 8.28412987,13.8073215 8.1043971,13.6464212 C8.0785833,13.6233121 8.05406585,13.5987947 8.03095682,13.5729809 C7.98858482,13.5256495 7.9507125,13.4757383 7.91733987,13.4237953 L5.2507667,10.4421766 C4.85176371,9.99647277 4.85176371,9.32200955 5.2507667,8.87630568 C5.59730283,8.4892096 6.19202925,8.45632926 6.57912533,8.8028654 C6.60493913,8.82597443 6.62945658,8.85049188 6.65256561,8.87630568 L8.74251445,11.2113075 L13.1708862,6.26558307 C13.5174223,5.87848699 14.1121487,5.84560665 14.4992448,6.19214278 Z" id="形状结合" fill="#FFFFFF"></path>
            <polygon id="星形" fill="#00C22B" transform="translate(20.517195, 2.164939) rotate(8.000000) translate(-20.517195, -2.164939) " points="20.5171955 2.90891992 19.465047 3.21708707 19.7732142 2.16493861 19.465047 1.11279015 20.5171955 1.42095729 21.5693439 1.11279015 21.2611768 2.16493861 21.5693439 3.21708707"></polygon>
            <polygon id="星形备份-2" fill="#00C22B" transform="translate(1.275202, 16.798906) rotate(44.000000) translate(-1.275202, -16.798906) " points="1.27520228 17.436604 0.373360747 17.7007473 0.637504018 16.7989058 0.373360747 15.8970642 1.27520228 16.1612075 2.17704382 15.8970642 1.91290055 16.7989058 2.17704382 17.7007473"></polygon>
            <polygon id="星形备份" fill="#00C22B" transform="translate(23.158515, 5.723470) rotate(21.000000) translate(-23.158515, -5.723470) " points="23.1585153 6.1840296 22.5071853 6.37479974 22.6979554 5.72346974 22.5071853 5.07213974 23.1585153 5.26290988 23.8098453 5.07213974 23.6190751 5.72346974 23.8098453 6.37479974"></polygon>
        </g>
    </g>
</svg>