<svg id="设置" xmlns="http://www.w3.org/2000/svg" width="24" height="24" viewBox="0 0 24 24">
  <rect id="矩形_8354" data-name="矩形 8354" width="24" height="24" fill="none"/>
  <path id="设置-2" data-name="设置" d="M136.088,116.91a9.184,9.184,0,0,1-2.812,1.578V120.5a1.5,1.5,0,0,1-1.5,1.5h-3.1a1.5,1.5,0,0,1-1.5-1.5v-2.012a9.15,9.15,0,0,1-2.812-1.578l-1.7.983a1.5,1.5,0,0,1-2.049-.549l-1.549-2.688a1.5,1.5,0,0,1,.546-2.049l1.621-.936a8.9,8.9,0,0,1,0-3.341l-1.621-.936a1.5,1.5,0,0,1-.549-2.049l1.549-2.688a1.5,1.5,0,0,1,2.049-.549l1.7.983a9.172,9.172,0,0,1,2.815-1.581V99.5a1.5,1.5,0,0,1,1.5-1.5h3.1a1.5,1.5,0,0,1,1.5,1.5v2.012a9.181,9.181,0,0,1,2.812,1.578l1.7-.983a1.5,1.5,0,0,1,2.049.549l1.549,2.688a1.5,1.5,0,0,1-.549,2.049l-1.621.936a8.9,8.9,0,0,1,0,3.341l1.621.936a1.5,1.5,0,0,1,.549,2.049l-1.549,2.688a1.5,1.5,0,0,1-2.049.549Zm-5.864-2.408a4.5,4.5,0,1,0-4.575-4.5A4.538,4.538,0,0,0,130.223,114.5Z" transform="translate(-117.658 -98)" />
</svg>
