<svg xmlns="http://www.w3.org/2000/svg" width="24" height="24" viewBox="0 0 24 24">
    <path data-name="矩形 8369" style="fill:none" d="M0 0h24v24H0z"/>
    <path data-name="联合 46" d="M16707.016 4871.864c-1.18 2.083-1.508 4.147-.8 5.414s2.625 2.1 5.021 2.188zm16.629.727c1.178-2.083 1.508-4.147.807-5.414s-2.627-2.1-5.023-2.188zm-4.836-7.614a13.992 13.992 0 0 0-6.516 1.757 13.829 13.829 0 0 0-4.959 4.6l4.52 8.146a14.073 14.073 0 0 0 11.459-6.346zm-1.187 5.056c-.248.1-.494.177-.746.284-.141-.331-.27-.658-.4-1-.332.14-.662.28-.984.437.156.322.3.653.453.974-.238.112-.477.223-.709.35l-.5-.959q-.486.254-.939.52c.188.316.365.616.551.933-.23.127-.451.271-.674.415-.189-.3-.4-.6-.586-.9-.3.189-.6.4-.893.6.207.294.418.577.635.875l-.635.482c-.225-.286-.451-.558-.674-.844-.342.276-.672.555-1 .847-.184-.19-.348-.39-.527-.581.336-.3.682-.593 1.041-.877-.223-.285-.449-.558-.672-.843.236-.2.48-.375.727-.553.207.294.428.58.635.874.3-.218.611-.434.928-.632-.189-.3-.395-.6-.584-.9.252-.163.508-.325.775-.483.188.316.363.616.549.932.316-.186.646-.368.971-.538l-.5-.96c.275-.143.551-.272.822-.4.156.322.3.653.455.975.334-.153.682-.3 1.029-.453-.141-.33-.264-.67-.406-1 .281-.113.564-.226.854-.323.125.34.236.677.361 1.017.432-.153.859-.293 1.295-.417.066.254.148.5.213.753-.418.115-.836.259-1.25.4.138.316.263.656.384.996z" transform="translate(-16703.332 -4860.228)" />
</svg>
