<svg id="今日" xmlns="http://www.w3.org/2000/svg" width="24" height="24" viewBox="0 0 24 24">
  <g id="组_3616" data-name="组 3616">
    <rect id="矩形_1106" data-name="矩形 1106" width="24" height="24" fill="none"/>
    <path id="路径_2338" data-name="路径 2338" d="M19,20.5H3a3,3,0,0,1-3-3V5.5a3,3,0,0,1,3-3H4v1.75A2.247,2.247,0,0,0,6.144,6.5l.106,0A2.247,2.247,0,0,0,8.5,4.356l0-.105V2.5h5v1.75A2.247,2.247,0,0,0,15.644,6.5l.106,0A2.247,2.247,0,0,0,18,4.356l0-.105V2.5h1a3,3,0,0,1,3,3v12A3,3,0,0,1,19,20.5ZM6.905,11.312a.75.75,0,0,0-.532,1.279l3.536,3.536.057.051a.754.754,0,0,0,.473.168.746.746,0,0,0,.531-.219l5.656-5.657.052-.057a.75.75,0,0,0-1.112-1L10.44,14.536,7.434,11.531l-.057-.052A.754.754,0,0,0,6.905,11.312ZM15.75,5a.751.751,0,0,1-.75-.75V.75a.75.75,0,1,1,1.5,0v3.5A.75.75,0,0,1,15.75,5ZM6.25,5a.751.751,0,0,1-.75-.75V.75A.75.75,0,1,1,7,.75v3.5A.75.75,0,0,1,6.25,5Z" transform="translate(1 2)"/>
  </g>
</svg>
