<svg height="512" viewBox="0 0 50 50" width="512" xmlns="http://www.w3.org/2000/svg"><path d="M40.071 27.3l-.007 4.095c0-1.815-1.19-3.636-3.586-5.013-1.183-.689-2.56-1.198-4.023-1.542-4.389-1.026-9.61-.516-13.152 1.542-2.338 1.362-3.514 3.148-3.522 4.941l.015-4.095c.007-1.786 1.176-3.571 3.521-4.934 3.543-2.058 8.764-2.574 13.153-1.549 1.463.344 2.832.86 4.023 1.542 2.388 1.384 3.585 3.198 3.578 5.013z" fill="#f2bc36"/><g fill="#f9c73a"><path d="M40.072 27.3l-.011 4.091c-.005 1.79-1.18 3.578-3.525 4.94l.011-4.091c2.346-1.364 3.52-3.15 3.525-4.94z"/><path d="M15.784 31.322l.012-4.092c-.005 1.812 1.188 3.627 3.577 5.007 4.753 2.744 12.457 2.744 17.174.003l-.011 4.092c-4.718 2.741-12.421 2.741-17.174-.003-2.39-1.38-3.583-3.195-3.578-5.007z"/><path d="M36.491 23.378c4.753 2.744 4.778 7.206.056 9.95-4.717 2.742-12.42 2.742-17.174-.002-4.748-2.742-4.773-7.204-.056-9.945 4.722-2.745 12.426-2.744 17.174-.003z"/></g><path d="M43.664 27.31l-.012 4.091c-.006 2.318-1.529 4.633-4.57 6.4-6.124 3.559-16.086 3.556-22.25-.002-3.1-1.79-4.65-4.14-4.643-6.487l.012-4.093c-.007 2.347 1.542 4.697 4.643 6.488 6.163 3.558 16.126 3.56 22.249.002 3.042-1.767 4.564-4.082 4.571-6.4z" fill="#f2bc36"/><path d="M39.02 20.82c6.164 3.557 6.196 9.331.073 12.89-6.123 3.558-16.086 3.555-22.249-.003-6.163-3.558-6.195-9.327-.073-12.885 6.124-3.558 16.087-3.56 22.25-.003zM19.374 32.236c4.753 2.744 12.457 2.744 17.174.003 4.722-2.745 4.697-7.207-.056-9.95-4.748-2.742-12.452-2.742-17.174.002-4.717 2.741-4.692 7.204.056 9.945" fill="#fed44c"/><g fill="#f2bc36"><path d="M33.852 24.442l-.002.843-.663.386.002-.844zm-5.639 1.985l.003-.843c0-.197.144-.376.428-.541.292-.17.647-.246 1.062-.231a3.1 3.1 0 011.266.332l-.002.843a3.1 3.1 0 00-1.266-.331c-.415-.016-.77.06-1.062.23-.284.165-.428.345-.429.541zm3.559-.776l-.002.844-2.442 1.418.002-.843z"/><path d="M32.89 27.167l-.002.844c-.168-.569-.543-1.074-1.119-1.516l.003-.844c.575.443.95.948 1.118 1.516z"/><path d="M34.937 26.965l-.003.844-2.046.202.002-.844zm-9.066-.667l.003-.844a.86.86 0 00.01.14c.076.484.49 1.081 1.242 1.785l-.002.843c-.752-.703-1.167-1.3-1.242-1.785a.861.861 0 01-.01-.14zm2.447 2.634l-.003.844v-.03c-.015-.213-.208-.519-.576-.91l.003-.843c.368.391.56.696.575.91v.03z"/><path d="M27.742 27.993l-.002.844-2.34 1.36.002-.844zm-4.557 1.677l-.003.843c-1.074-.761-1.672-1.654-1.8-2.681l.003-.844c.128 1.028.726 1.92 1.8 2.681zm-.11 1.035l-.002.843-.839-.484.002-.843zm.935-.544l-.002.844-.935.543.002-.843z"/><path d="M30.638 29.06l-.002.843c-.001.452-.348.877-1.036 1.277-.762.443-1.65.645-2.664.61a6.8 6.8 0 01-2.928-.785l.003-.844a6.8 6.8 0 002.928.786c1.014.034 1.902-.168 2.663-.61.689-.4 1.035-.826 1.036-1.277z"/></g><path d="M30.628 28.922c.075.503-.268.974-1.026 1.415-.761.442-1.65.644-2.663.61a6.8 6.8 0 01-2.928-.786l-.936.544-.839-.484.949-.552c-1.074-.76-1.672-1.653-1.8-2.68l2.087-.108c.1.792.476 1.446 1.13 1.965l2.524-1.467c-.751-.704-1.166-1.3-1.241-1.785-.079-.486.258-.946 1.01-1.383.748-.435 1.622-.64 2.626-.612a6.433 6.433 0 012.843.736l.65-.377.839.484-.664.385c.89.593 1.473 1.307 1.748 2.138l-2.047.202c-.168-.568-.543-1.073-1.118-1.516L29.33 27.07l.04.023c.764.715 1.19 1.325 1.258 1.829zm-3.867.793c.444.025.816-.05 1.12-.227.303-.175.45-.372.436-.585-.015-.214-.207-.519-.575-.91l-2.34 1.36a3.66 3.66 0 001.359.362m1.963-3.265l2.248-1.306a3.1 3.1 0 00-1.266-.332c-.415-.015-.77.061-1.062.23-.289.169-.433.352-.428.552.007.198.174.484.508.856" fill="#fed44c"/><path d="M41.473 21.584l-.008 4.094c0-1.814-1.19-3.635-3.585-5.012-1.184-.689-2.56-1.198-4.024-1.542-4.388-1.026-9.61-.517-13.152 1.542-2.338 1.362-3.514 3.148-3.521 4.941l.014-4.095c.007-1.786 1.176-3.571 3.521-4.934 3.543-2.058 8.764-2.575 13.153-1.549 1.463.344 2.833.86 4.023 1.542 2.388 1.384 3.586 3.198 3.579 5.013z" fill="#f2bc36"/><g fill="#f9c73a"><path d="M41.474 21.583l-.012 4.092c-.005 1.79-1.18 3.577-3.525 4.94l.011-4.092c2.346-1.363 3.52-3.15 3.526-4.94z"/><path d="M17.185 25.606l.012-4.093c-.005 1.813 1.188 3.628 3.578 5.008 4.752 2.744 12.456 2.744 17.173.002l-.011 4.093c-4.717 2.741-12.421 2.741-17.174-.003-2.39-1.38-3.583-3.195-3.578-5.007z"/><path d="M37.892 17.662c4.753 2.744 4.778 7.206.056 9.95-4.717 2.742-12.42 2.741-17.173-.003-4.748-2.74-4.774-7.203-.056-9.945 4.722-2.744 12.425-2.744 17.173-.002z"/></g><path d="M45.065 21.593l-.011 4.092c-.007 2.318-1.53 4.633-4.571 6.4-6.123 3.559-16.086 3.556-22.25-.002-3.1-1.79-4.65-4.141-4.643-6.488l.012-4.092c-.007 2.347 1.542 4.697 4.643 6.488 6.163 3.558 16.126 3.56 22.25.002 3.041-1.767 4.564-4.082 4.57-6.4z" fill="#f2bc36"/><path d="M40.422 15.103c6.163 3.558 6.195 9.332.072 12.89s-16.086 3.556-22.249-.002c-6.163-3.559-6.195-9.327-.072-12.885s16.086-3.561 22.249-.003zM20.775 26.521c4.752 2.744 12.456 2.744 17.173.002 4.722-2.744 4.697-7.206-.056-9.95-4.748-2.741-12.451-2.741-17.173.003-4.718 2.741-4.692 7.203.056 9.945" fill="#fed44c"/><g fill="#f2bc36"><path d="M35.254 18.726l-.003.843-.663.386.003-.844zm-5.639 1.985l.002-.843c0-.197.144-.376.428-.541.292-.17.647-.246 1.062-.231a3.1 3.1 0 011.267.332l-.003.843a3.1 3.1 0 00-1.266-.332c-.415-.015-.77.061-1.062.231-.284.165-.428.345-.428.541zm3.558-.776l-.002.843-2.442 1.42.003-.844z"/><path d="M34.291 21.451l-.002.844c-.168-.569-.543-1.074-1.118-1.517l.002-.843c.575.442.95.948 1.118 1.516zm2.047-.202l-.002.843-2.047.203.002-.844zm-9.066-.667l.003-.844a.86.86 0 00.011.14c.075.484.49 1.081 1.241 1.785l-.002.843c-.751-.703-1.166-1.3-1.241-1.785a.86.86 0 01-.012-.14zm2.447 2.634l-.003.844v-.03c-.015-.214-.207-.519-.575-.91l.002-.843c.368.39.56.696.575.91v.03z"/><path d="M29.143 22.277l-.002.843-2.34 1.36.002-.843zm-4.557 1.676l-.002.844c-1.075-.761-1.672-1.654-1.8-2.682l.002-.843c.128 1.028.726 1.92 1.8 2.681zm-.109 1.036l-.003.843-.839-.484.003-.844zm.935-.544l-.002.844-.936.543.003-.843z"/><path d="M32.04 23.343l-.003.844c-.001.452-.347.877-1.036 1.277-.761.443-1.65.645-2.663.61a6.8 6.8 0 01-2.928-.785l.002-.844a6.8 6.8 0 002.928.786c1.014.034 1.902-.168 2.663-.61.689-.4 1.035-.826 1.036-1.278z"/></g><path d="M32.03 23.206c.075.503-.268.974-1.027 1.415-.76.442-1.649.644-2.663.61a6.8 6.8 0 01-2.928-.786l-.935.544-.84-.485.95-.55c-1.075-.762-1.673-1.654-1.8-2.682l2.086-.107c.1.792.476 1.446 1.13 1.964l2.524-1.466c-.751-.704-1.166-1.3-1.241-1.785-.078-.487.258-.946 1.01-1.383.748-.435 1.622-.64 2.627-.612a6.433 6.433 0 012.842.736l.65-.378.839.485-.663.385c.889.593 1.472 1.306 1.747 2.138l-2.047.202c-.168-.568-.543-1.074-1.118-1.516l-2.441 1.419.04.023c.764.715 1.189 1.325 1.257 1.829zm-3.868.793c.444.025.816-.05 1.121-.227.302-.175.45-.372.435-.585-.014-.214-.207-.52-.575-.91l-2.34 1.36a3.66 3.66 0 001.359.362m1.964-3.265l2.248-1.306a3.1 3.1 0 00-1.267-.332c-.415-.015-.77.06-1.062.23-.289.168-.432.352-.428.552.008.198.174.484.509.856" fill="#fed44c"/><path d="M45.407 14.708l-.007 4.095c0-1.814-1.19-3.636-3.586-5.013-1.183-.688-2.56-1.197-4.023-1.541-4.389-1.026-9.61-.517-13.152 1.541-2.338 1.363-3.514 3.149-3.522 4.942l.015-4.095c.007-1.786 1.176-3.572 3.52-4.934 3.544-2.058 8.764-2.575 13.153-1.55 1.463.345 2.833.861 4.024 1.543 2.388 1.384 3.585 3.198 3.578 5.012z" fill="#f2bc36"/><g fill="#f9c73a"><path d="M45.408 14.708l-.011 4.092c-.006 1.79-1.18 3.577-3.526 4.94l.012-4.092c2.346-1.363 3.52-3.15 3.525-4.94z"/><path d="M21.12 18.73l.012-4.092c-.006 1.813 1.188 3.628 3.577 5.007 4.753 2.744 12.457 2.745 17.174.003l-.012 4.092c-4.717 2.742-12.42 2.742-17.173-.002-2.39-1.38-3.583-3.195-3.578-5.008z"/><path d="M41.827 10.786c4.753 2.744 4.778 7.207.056 9.95-4.717 2.742-12.42 2.742-17.174-.002-4.748-2.741-4.773-7.203-.056-9.945 4.722-2.744 12.426-2.744 17.174-.003z"/></g><path d="M49 14.718l-.012 4.092c-.006 2.318-1.529 4.632-4.57 6.4-6.124 3.558-16.087 3.556-22.25-.003-3.1-1.79-4.65-4.14-4.643-6.487l.011-4.092c-.006 2.346 1.543 4.697 4.644 6.487 6.163 3.558 16.126 3.561 22.249.003 3.042-1.768 4.564-4.082 4.571-6.4z" fill="#f2bc36"/><path d="M44.356 8.228c6.163 3.558 6.196 9.332.073 12.89-6.123 3.558-16.086 3.555-22.249-.003-6.163-3.558-6.195-9.326-.073-12.884 6.123-3.559 16.086-3.561 22.25-.003zM24.71 19.645c4.753 2.744 12.457 2.745 17.174.003 4.722-2.744 4.697-7.206-.056-9.95-4.748-2.742-12.452-2.742-17.174.002-4.717 2.742-4.692 7.204.056 9.945" fill="#fed44c"/><g fill="#f2bc36"><path d="M39.188 11.85l-.002.844-.663.385.002-.843zm-5.638 1.986l.002-.844c0-.196.144-.376.428-.54.292-.17.647-.247 1.062-.231a3.1 3.1 0 011.266.331l-.002.844a3.1 3.1 0 00-1.267-.332c-.414-.015-.77.061-1.062.23-.283.166-.427.345-.428.542zm3.558-.776l-.003.843-2.441 1.419.002-.843z"/><path d="M38.226 14.576l-.003.843c-.167-.568-.542-1.073-1.118-1.516l.003-.843c.575.442.95.947 1.118 1.516zm2.047-.202l-.003.843-2.047.202.003-.843zm-9.066-.668l.002-.843a.86.86 0 00.012.14c.075.484.49 1.08 1.24 1.784l-.001.844c-.752-.704-1.167-1.3-1.242-1.785a.86.86 0 01-.01-.14zm2.446 2.635l-.002.843v-.03c-.015-.213-.208-.518-.576-.909l.003-.843c.368.39.56.696.574.91l.001.029z"/><path d="M33.078 15.402l-.003.843-2.34 1.36.003-.844zm-4.558 1.676l-.002.843c-1.074-.76-1.672-1.653-1.8-2.681l.003-.843c.128 1.027.725 1.92 1.8 2.68zm-.109 1.035l-.002.844-.84-.485.003-.843z"/><path d="M29.347 17.57l-.003.843-.935.544.002-.844z"/><path d="M35.974 16.468l-.002.843c-.002.452-.348.878-1.036 1.278-.762.442-1.65.644-2.664.61a6.8 6.8 0 01-2.928-.786l.003-.843a6.8 6.8 0 002.928.786c1.014.034 1.902-.168 2.663-.61.689-.4 1.035-.826 1.036-1.278z"/></g><path d="M35.964 16.33c.075.504-.268.975-1.026 1.415-.761.443-1.65.645-2.663.61a6.8 6.8 0 01-2.928-.785l-.936.543-.839-.484.949-.551c-1.075-.761-1.672-1.654-1.8-2.681l2.087-.107c.1.791.476 1.445 1.13 1.964l2.524-1.467c-.751-.703-1.166-1.3-1.241-1.785-.079-.486.258-.946 1.01-1.382.747-.435 1.622-.641 2.626-.612a6.433 6.433 0 012.843.736l.65-.378.838.484-.663.386c.89.593 1.473 1.306 1.748 2.138l-2.047.202c-.168-.569-.543-1.074-1.118-1.516l-2.442 1.419.04.022c.764.716 1.19 1.326 1.258 1.83zm-3.868.794c.445.024.817-.05 1.122-.227.302-.176.449-.372.434-.586-.014-.213-.206-.519-.574-.91l-2.34 1.36a3.66 3.66 0 001.359.363m1.963-3.265l2.248-1.307a3.1 3.1 0 00-1.266-.331c-.415-.016-.77.06-1.062.23-.289.168-.433.351-.428.551.007.199.174.485.508.857M24.87 37.643l-4.058 2.363c-.905.527-1.984.75-3.185.642-.766-.066-1.58-.271-2.437-.626-.46-.189-.93-.42-1.407-.7C8.325 36.179 3.905 28.516 3.92 22.26v-.23c.033-1.474.313-2.725.79-3.745.215-.445.461-.848.75-1.202a4.92 4.92 0 011.35-1.17l4.058-2.353c-.51.296-.963.683-1.35 1.168-.288.346-.535.75-.741 1.194-.486 1.02-.766 2.28-.79 3.745 0 .074-.009.149-.009.23-.016 6.265 4.404 13.92 9.862 17.073.477.271.954.502 1.415.691a8.43 8.43 0 002.429.634c1.201.107 2.28-.124 3.185-.65z" fill="#fed44c"/><g fill="#f9c73a"><path d="M24.872 37.647l-4.06 2.36c1.775-1.031 2.878-3.223 2.886-6.334l4.061-2.36c-.008 3.111-1.111 5.303-2.887 6.334zM6.81 15.916l4.06-2.36c1.8-1.046 4.291-.9 7.036.685l-4.06 2.36c-2.746-1.585-5.237-1.73-7.036-.685z"/><path d="M13.845 16.6l4.061-2.36c5.45 3.147 9.871 10.805 9.853 17.073l-4.06 2.36c.017-6.268-4.404-13.926-9.854-17.072z"/></g><path d="M14.803 15.868c5.45 3.146 9.871 10.804 9.853 17.072-.017 6.263-4.467 8.799-9.917 5.652-5.456-3.15-9.877-10.807-9.859-17.07.018-6.268 4.468-8.804 9.923-5.654z" fill="#f2bc36"/><path d="M13.855 13.243c7.073 4.084 12.789 13.989 12.765 22.117-.023 8.129-5.775 11.407-12.849 7.322C6.697 38.598.977 28.697 1.001 20.568c.022-8.128 5.78-11.41 12.854-7.325zm-.074 26.082c5.45 3.146 9.9.61 9.917-5.652.018-6.268-4.403-13.926-9.853-17.072-5.455-3.15-9.905-.614-9.923 5.654-.018 6.263 4.404 13.92 9.859 17.07" fill="#f9c73a"/><g><path d="M14.36 33.744l.706-.41-.003 1.194-.706.41z" fill="#e2ab30"/><path d="M10.952 28.508l.705-.41c.806 1.27 1.639 2.233 2.491 2.88l-.705.41c-.853-.647-1.685-1.61-2.49-2.88zm3.414 3.464l.705-.41c.463.212.828.268 1.1.168l-.705.41c-.272.1-.637.044-1.1-.168z" fill="#fed44c"/><path d="M16.27 31.684l-.705.41a.62.62 0 01-.099.046l.705-.41a.62.62 0 00.099-.046z"/><path d="M14.374 28.987l.706-.41-.009 2.985-.705.41z" fill="#e2ab30"/><g fill="#fed44c"><path d="M14.38 26.965l.705-.41.045.026-.705.41zm-1.989-3.814l.705-.41c-.205.12-.311.347-.312.688-.001.367.094.716.285 1.043.194.329.558.745 1.094 1.253l-.705.41c-.536-.508-.9-.924-1.094-1.253a2.028 2.028 0 01-.285-1.044c0-.34.106-.567.312-.687z"/><path d="M14.425 26.99l.705-.41c1.104.94 1.915 1.812 2.434 2.62l-.705.41c-.52-.808-1.33-1.68-2.434-2.62z"/><path d="M17.569 33.638l-.705.41c.508-.295.765-.885.768-1.775a4.815 4.815 0 00-.773-2.664l.705-.41c.516.806.776 1.695.773 2.664-.003.89-.26 1.48-.768 1.775z"/></g><path d="M14.389 23.852l.705-.41-.009 3.113-.705.41z" fill="#e2ab30"/><path d="M11.088 21.235l.706-.41c.035-.02.07-.039.108-.056.583-.27 1.341-.167 2.274.316l-.705.41c-.933-.483-1.691-.587-2.274-.317a1.391 1.391 0 00-.109.057zm2.385-.569l.705-.41.924.533-.706.41z" fill="#fed44c"/><path d="M14.396 21.199l.706-.41-.003.847-.705.41z" fill="#e2ab30"/><path d="M14.394 22.046l.705-.41c1.057.7 2.056 1.691 2.996 2.973l-.705.41c-.94-1.282-1.939-2.274-2.996-2.973z" fill="#fed44c"/><path d="M17.39 25.019l.705-.41-.94.987-.705.41z" fill="#e2ab30"/><path d="M16.859 29.61c.516.804.775 1.694.773 2.663-.003.965-.306 1.577-.901 1.843-.6.265-1.39.14-2.37-.372l-.004 1.194-.923-.533.004-1.212c-1.316-.914-2.496-2.198-3.541-3.853l1.055-.832c.806 1.27 1.638 2.233 2.49 2.88l.01-3.216c-1.085-.925-1.88-1.777-2.383-2.552a4.654 4.654 0 01-.75-2.6c.002-.954.295-1.568.878-1.842.583-.27 1.34-.166 2.274.317l.002-.83.923.534-.002.847c1.057.699 2.056 1.691 2.996 2.973l-.94.986c-.635-.888-1.32-1.604-2.061-2.153l-.009 3.113.045.026c1.104.939 1.914 1.811 2.434 2.618zm-1.393 2.53c.269-.098.404-.34.405-.726a2.09 2.09 0 00-.313-1.104c-.214-.35-.606-.79-1.184-1.323l-.008 2.985c.463.212.828.268 1.1.168m-2.008-6.005l.008-2.867c-.432-.205-.77-.254-1.017-.146-.244.11-.37.346-.37.716a2.03 2.03 0 00.285 1.044c.194.329.558.745 1.094 1.253" fill="#f9c73a"/></g><path d="M30.685 33c-.016 4.042-1.44 6.882-3.737 8.215l-4.066 2.363c2.305-1.342 3.729-4.182 3.737-8.215.025-8.133-5.688-18.035-12.767-22.118-3.556-2.058-6.783-2.247-9.112-.897l4.058-2.354c2.33-1.359 5.556-1.17 9.12.889C24.99 14.965 30.702 24.868 30.685 33z" fill="#fed44c"/><g fill="#fff"><path d="M21.759 38.837l.232.783-.48-.66-.859 1.582.28-1.778-.782.232.66-.48-1.582-.86 1.778.282-.232-.783.48.66.86-1.582-.281 1.778.782-.232-.66.48 1.583.86zm19.949-25.785l.43 1.451-.89-1.224-1.592 2.934.52-3.297-1.45.43 1.224-.89-2.934-1.592 3.297.52-.43-1.45.89 1.224 1.592-2.934-.52 3.297 1.45-.43-1.224.89 2.934 1.592z"/></g></svg>