<svg height="512" width="512" xmlns="http://www.w3.org/2000/svg"><path d="M256 21.996c-135.311 0-245.002 109.691-245.002 245.002 0 81.34 39.649 153.407 100.662 197.969h288.68c61.013-44.561 100.662-116.629 100.662-197.969 0-135.311-109.691-245.002-245.002-245.002z" fill="#ffdd40"/><path d="M108.199 148.49c3.406 14.241 6.152 28.355 8.375 42.229-17.204-5.516-29.685-11.474-29.893-11.574-.332-.16-31.699-15.419-55.171-37.806 4.391-10.996 10.182-22.941 18.073-36.128 26.731-44.67 81.459-66.259 107.564-74.352-26.224 18.117-63.723 55.843-48.948 117.631z" fill="#1e9ef4"/><path d="M8.193 231.754c4.41-12.083 6.536-24.134 8.952-37.208 21.85 18.496 46.957 30.712 47.24 30.849.281.136 23.651 11.295 50.463 17.097-8.534 18.244-15.828 30.861-19.366 36.679a7.147 7.147 0 01-6.58 3.417c-55.022-3.722-74.936-33.527-80.284-44.026a8.542 8.542 0 01-.425-6.808z" fill="#3c58a0"/><path d="M405.249 141.578c5.917 6.465 15.331 18.169 24.344 35.374 9.416-4.991 32.565-18.128 50.898-35.613-4.391-10.996-10.182-22.941-18.073-36.128-26.731-44.67-81.459-66.259-107.564-74.352 25.23 17.431 60.889 53.018 50.395 110.719z" fill="#49b1f7"/><path d="M405.58 139.707a128.055 128.055 0 01-1.779 8.783c-3.405 14.241-6.152 28.355-8.375 42.229 17.204-5.516 29.685-11.474 29.893-11.574.084-.04 2.165-1.053 5.6-2.902-9.504-18.167-19.421-30.213-25.339-36.536z" fill="#1e9ef4"/><path d="M454.485 236.095c.108.252 9.228 20.747 29.484 25.417 11.134-8.771 16.892-18.002 19.412-22.949a8.54 8.54 0 00.426-6.809c-4.41-12.083-6.536-24.134-8.952-37.208-18.177 15.387-38.594 26.42-45.112 29.776z" fill="#4f71b6"/><path d="M455.862 235.5l-4.783-11.873a133.62 133.62 0 01-3.465 1.768c-.281.136-23.651 11.295-50.463 17.097 8.534 18.244 15.828 30.861 19.366 36.679a7.147 7.147 0 006.58 3.417c30.273-2.048 49.902-11.993 62.341-22.272-20.562-3.959-29.576-24.816-29.576-24.816z" fill="#3c58a0"/><path d="M16.831 196.249c3.044-16.502 6.379-34.584 15.284-56.415 23.585 22.702 55.217 37.96 55.217 37.96s12.093 5.826 28.989 11.294a631.554 631.554 0 015.077 38.792 495.57 495.57 0 01-7.204 16.011c-27.134-5.907-50.459-17.144-50.459-17.144s-24.836-11.978-46.904-30.498z" fill="#49b1f7"/><path d="M437.971 195.108l12.335 30.615c6.356-3.255 26.555-14.109 44.863-29.474-3.044-16.502-6.379-34.584-15.284-56.416-18.366 17.678-41.604 30.838-50.994 35.8a200.11 200.11 0 019.08 19.475z" fill="#73c3f9"/><path d="M451.644 225.03l-12.282-30.484a203.208 203.208 0 00-9.141-19.623c-3.474 1.865-5.553 2.869-5.553 2.869s-12.093 5.826-28.989 11.294a631.655 631.655 0 00-5.077 38.792 495.57 495.57 0 007.204 16.011c27.135-5.907 50.459-17.144 50.459-17.144s1.231-.592 3.379-1.715z" fill="#49b1f7"/><path d="M399.512 78.736c-31.221 5.497-65.466 8.381-92.675 9.893-14.546 7.758-31.841 12.312-50.837 12.312-13.509 0-26.107-2.3-37.463-6.387.089.374.165.745.272 1.125-6.447 1.3-29.165 6.898-40.33 22.975-5.654 8.142-7.422 17.724-5.254 28.479 1.573 7.802 3.325 19.781 5.056 34.631 42.366 3.42 77.123 3.49 77.719 3.49.897 0 79.253-.154 144.421-11.677a554.875 554.875 0 015.38-25.084c6.715-28.087 2.627-51.196-6.289-69.757z" fill="#73c3f9"/><path d="M174.696 146.834c-8.333-41.333 46.05-49.988 46.05-49.988a28.62 28.62 0 01-.525-1.7 101.402 101.402 0 01-15.073-6.517c-27.206-1.512-61.443-4.396-92.66-9.893-8.916 18.561-13.004 41.671-6.289 69.754a556.25 556.25 0 015.38 25.084c22.417 3.964 46.395 6.583 68.244 8.312-1.755-15.015-3.533-27.142-5.127-35.052z" fill="#49b1f7"/><path d="M391.801 375.156l-.161-2.497c-63.036 10.097-134.809 10.236-135.64 10.236-.552 0-30.455-.059-68.507-2.791-.593 17.731-1.75 34.26-3.618 48.629-2.142 16.469.417 32.118 7.486 46.599 36.216 2.463 64.106 2.519 64.639 2.519.887 0 77.443-.152 142.145-11.282.737-.526 1.464-1.067 2.195-1.601-3.8-35.963-7.364-71.74-8.539-89.812z" fill="#73c3f9"/><path d="M185.362 428.925c1.88-14.456 3.049-31.005 3.653-48.714-21.462-1.51-45.635-3.868-68.655-7.554l-.162 2.499c-1.175 18.072-4.74 53.849-8.539 89.81.731.534 1.458 1.075 2.195 1.601 26.392 4.54 54.755 7.253 79.152 8.875-6.649-13.27-9.961-28.7-7.644-46.517z" fill="#49b1f7"/><path d="M392.777 226.173C329.453 236.452 256.862 236.595 256 236.595c-.572 0-32.727-.064-72.799-3.109 2.288 29.586 4.062 62.898 4.608 95.3 37.93 2.706 67.641 2.765 68.191 2.765.847 0 70.659-.137 133.281-9.832-.627-27.838-.104-60.455 3.496-95.546z" fill="#73c3f9"/><path d="M189.363 328.896c-.532-32.424-2.307-65.711-4.602-95.292-20.73-1.544-43.685-3.883-65.537-7.431 3.6 35.09 4.123 67.707 3.495 95.545 22.461 3.478 45.847 5.725 66.644 7.178z" fill="#49b1f7"/><path d="M256 183.751s-35.055-.002-77.894-3.474c1.832 15.495 3.647 34.253 5.213 54.753 40.433 3.063 72.681 3.065 72.681 3.065s72.668-.001 136.617-10.363c1.806-18.016 4.422-36.696 8.107-55.724C334.981 183.75 256 183.751 256 183.751z" fill="#9bd8f9"/><path d="M179.649 180.402c-21.883-1.739-45.901-4.38-68.373-8.394 3.685 19.028 6.301 37.708 8.107 55.724 21.9 3.549 44.82 5.882 65.497 7.416-1.57-20.475-3.391-39.224-5.231-54.746z" fill="#73c3f9"/><path d="M187.438 381.633c38.482 2.76 68.562 2.762 68.562 2.762s72.003-.002 135.737-10.223c-.951-14.683-2.051-32.985-2.489-53.949C326.144 330.05 256 330.05 256 330.05s-29.901-.001-68.218-2.736c.335 18.686.266 37.086-.344 54.319z" fill="#9bd8f9"/><path d="M189.336 327.424c-20.766-1.451-44.12-3.703-66.584-7.201-.438 20.963-1.538 39.266-2.489 53.949 23.086 3.702 47.255 6.063 68.696 7.569.624-17.261.705-35.653.377-54.317z" fill="#73c3f9"/><path d="M218.648 509.156A246.635 246.635 0 00256 512c53.971 0 103.856-17.465 144.34-47.033l-.03-.285C334.65 476.35 256 476.35 256 476.35s-28.417-.001-65.346-2.535c5.913 12.744 15.285 24.602 27.994 35.341z" fill="#9bd8f9"/><path d="M192.25 473.924c-24.874-1.669-53.795-4.486-80.559-9.242l-.03.285c31.698 23.151 69.16 38.88 109.833 44.618-11.816-9.61-22.465-21.409-29.244-35.661z" fill="#73c3f9"/><path d="M400.178 80.151c-11.857-25.703-33.03-42.873-48.26-52.57-3.664 26.413-21.806 49.831-48.424 62.758 27.838-1.455 63.874-4.367 96.684-10.188z" fill="#9bd8f9"/><path d="M208.489 90.338c-26.731-12.995-44.769-36.543-48.405-62.757-15.23 9.697-36.405 26.867-48.261 52.57 32.802 5.82 68.83 8.731 96.666 10.187z" fill="#73c3f9"/><path d="M235.67 72.602c24.948-12.886 16.417-38.696 15.21-41.975l.079-1.27H245c-5.79 0-10.5-4.71-10.5-10.5V3.99C224.197 2.971 214.738 1.476 208.163.3a19.177 19.177 0 00-16.447 4.846l-.083.078a132.696 132.696 0 01-6.188 5.405 47.346 47.346 0 00-.552 7.083c0 25.983 21.147 47.952 50.23 55.194.183-.1.356-.205.547-.304z" fill="#49b1f7"/><path d="M320.368 5.224l-.084-.078A19.177 19.177 0 00303.837.3c-6.575 1.176-16.034 2.671-26.337 3.69v14.867c0 5.79-4.71 10.5-10.5 10.5h-17.545l-.093 1.5s11.237 27.18-14.381 40.411c-.678.35-1.299.717-1.885 1.093 7.19 1.986 14.887 3.078 22.904 3.078 39.272 0 71.108-25.846 71.108-57.728 0-2.4-.202-4.761-.552-7.084a130.41 130.41 0 01-6.188-5.403z" fill="#1e9ef4"/><path d="M279 18.858V3.842c-7.425.773-15.349 1.315-23 1.315s-15.575-.542-23-1.315v15.016c0 6.6 5.4 12 12 12h22c6.6 0 12-5.4 12-12z" fill="#d3dcfb"/><path d="M345.772 23.863A139.513 139.513 0 01325.155 9.45v1.968c4.775 34.188-28.83 62.523-69.154 62.523a83.735 83.735 0 01-23.571-3.377c-3.249 1.283-9.33 4.369-12.523 10.383-2.279 4.294-2.646 9.243-1.098 14.731-.26.052-.554.114-.865.181 11.908 4.301 24.801 6.582 38.056 6.582 25.171 0 49.071-8.149 67.298-22.946 16.55-13.436 27.133-31.605 30.012-51.017a155.132 155.132 0 00-7.538-4.615z" fill="#e9efff"/><path d="M188.702 79.494c9.376 7.612 20.26 13.449 32.039 17.338-6.853-19.894 14.239-25.564 14.239-25.564-29.769-7.715-52.134-31.321-48.135-59.851V9.449a139.581 139.581 0 01-20.618 14.414 155.855 155.855 0 00-7.538 4.614c2.88 19.413 13.463 37.581 30.013 51.017z" fill="#d3dcfb"/><circle cx="337.723" cy="134.389" fill="#e9efff" transform="rotate(-45 337.724 134.46)" r="22.601"/><path d="M191.357 146.834h-25.21a7 7 0 110-14h25.21a7 7 0 110 14z" fill="#e9efff"/><path d="M13.643 303.075c7.065 47.856 27.968 91.203 58.514 125.85 23.182-22.64 25.311-69.45 15.821-91.425-9.069-21.003-48.384-30.428-74.335-34.425zm484.714 0c-25.951 3.997-65.267 13.422-74.336 34.425-9.489 21.975-7.361 68.786 15.821 91.425 30.547-34.647 51.45-77.993 58.515-125.85z" fill="#ffe98d"/></svg>