<svg height="512" width="512" xmlns="http://www.w3.org/2000/svg">
    <path d="M111.66 464.967h288.68c61.013-44.561 100.662-116.629 100.662-197.969 0-135.311-109.691-245.002-245.002-245.002S10.998 131.687 10.998 266.998c0 81.34 39.649 153.407 100.662 197.969z" fill="#2a428c"/>
    <path d="M405.795 138.331c2.435 11.068 6.197 25.115 11.529 37.111 9 20.248 30.751 56.899 37.235 67.705 5.689-2.88 11.042-6.141 16.022-9.81 14.069-10.365 22.049-21.595 26.144-28.788-5.128-26.521-8.584-56.355-34.308-99.34-26.731-44.67-81.459-66.259-107.564-74.352 24.755 17.103 59.546 51.682 50.942 107.474z" fill="#ff4155"/>
    <path d="M455.9 242.468c-6.39-10.637-28.155-47.272-37.205-67.635-5.988-13.472-9.968-29.44-12.308-40.857a124.056 124.056 0 01-2.587 14.513c-6.503 27.197-10.655 53.955-13.199 79.389 4.943 11.523 9.699 21.431 13.853 29.534 19.421-2.207 36.638-7.212 51.446-14.944zM49.583 105.209c26.731-44.67 81.459-66.259 107.564-74.352-26.224 18.118-63.723 55.845-48.948 117.632 6.504 27.197 10.655 53.955 13.199 79.389-4.943 11.523-9.699 21.431-13.853 29.534-26.229-2.981-48.45-11.051-66.127-24.075-14.068-10.365-22.048-21.595-26.143-28.787 5.128-26.521 8.584-56.356 34.308-99.341z" fill="#e80054"/>
    <path d="M456.388 246.181c.565 1.079 7.807 14.324 23.164 18.58 14.069-9.651 20.995-20.635 23.829-26.198a8.54 8.54 0 00.426-6.809c-3.531-9.675-5.598-19.329-7.522-29.504-4.821 9.01-16.96 26.711-42.502 39.601a833.7 833.7 0 002.605 4.33z" fill="#e9efff"/>
    <path d="M416.517 279.172a7.15 7.15 0 006.58 3.418c26.989-1.826 45.516-9.93 58.035-18.95-16.289-3.835-23.436-18.195-23.436-18.195s-.954-1.57-2.574-4.274c-13.167 6.856-29.994 12.453-51.389 14.826 5.611 11.045 10.2 18.925 12.784 23.175zM15.715 202.25c7.269 13.583 31.134 46.934 92.553 53.746-5.612 11.046-10.201 18.926-12.785 23.176a7.15 7.15 0 01-6.58 3.418c-55.022-3.722-74.936-33.527-80.284-44.027a8.54 8.54 0 01-.426-6.809c3.531-9.675 5.598-19.329 7.522-29.504z" fill="#d3dcfb"/>
    <path d="M345.772 23.863a143.874 143.874 0 01-5.511-3.34c-11.004 23.78-29.173 52.383-59.144 80.619-2.265 2.396-8.604 9.105-9.057 9.586l-.001.002.001-.001-.01.011-.005.005.001-.001-.039.041-.037.039.006-.006-.038.04.001-.002-.005.005-.013.014c-7.454 8.009-19.833 8.767-28.184 1.728-13.436-11.328-24.833-22.826-34.516-34.157-.11.803-.193 1.625-.229 2.478-7.847 1.573-49.656 11.899-44.333 52.105 1.87 14.124 4.036 33.8 6.036 57.131 30.535 3.045 61.914 4.49 85.305 4.49 38.847 0 99.859-3.909 142.907-12.817a561.122 561.122 0 016.893-33.344c17.051-71.299-35.512-110.566-60.028-124.626z" fill="#ff7186"/>
    <path d="M113.092 181.834c17.453 3.611 38.091 6.417 59.06 8.471-2.133-25.054-4.371-45.122-6.006-57.472-5.716-43.167 44.32-50.656 44.32-50.656 0-.755.034-1.477.09-2.175-18.287-21.081-30.581-41.632-38.835-59.468a145.042 145.042 0 01-5.494 3.329c-24.515 14.06-77.078 53.327-60.028 124.627a561.122 561.122 0 016.893 33.344z" fill="#ff4155"/>
    <path d="M174.341 420.189c-1.306 17.546 1.946 34.843 9.403 50.018 6.15 12.517 16.933 27.355 35.72 39.074A246.7 246.7 0 00256 512c53.971 0 103.856-17.465 144.34-47.033-3.8-35.962-7.364-71.739-8.539-89.81-1.284-19.734-2.873-46.207-2.738-76.978-40.428 7.358-96.408 10.961-133.063 10.961-22.197 0-50.985-1.301-79.132-3.903.784 37.957.256 77.552-2.527 114.952z" fill="#ff7186"/>
    <path d="M185.09 469.546c-7.492-15.247-10.514-32.305-9.253-49.246 2.801-37.641 3.295-77.25 2.502-114.929-19.516-1.772-38.785-4.168-55.402-7.192.135 30.771-1.454 57.244-2.738 76.978-1.175 18.072-4.739 53.849-8.539 89.81 32.122 23.46 70.165 39.29 111.469 44.833-19.569-11.319-31.172-26.279-38.039-40.254z" fill="#ff4155"/>
    <path d="M256 193.151s-40.158-.001-85.431-4.463c2.902 33.512 5.476 74.768 6.329 118.086 42.62 3.864 79.102 3.866 79.102 3.866s72.954-.003 133.056-10.928c.091-35.295 2.433-76.357 10.134-119.464C337.507 193.149 256 193.151 256 193.151z" fill="#f9a0b1"/>
    <path d="M122.944 299.712c18.092 3.289 37.347 5.587 55.427 7.194-.883-43.974-3.535-85.387-6.345-118.077-19.663-1.901-40.364-4.638-59.216-8.581 7.701 43.107 10.043 84.169 10.134 119.464z" fill="#ff7186"/>
    <path d="M301.534 31.385c-13.705 1.876-30.031 3.498-45.534 3.498s-31.829-1.622-45.533-3.498c9.82 15.668 24.095 34.16 44.529 52.69l1.008.914 1.008-.914c20.429-18.529 34.703-37.022 44.522-52.69z" fill="#ff4155"/>
    <path d="M301.534 31.385c-13.506 1.849-29.556 3.448-44.856 3.494-.222.334-.437.667-.677 1.004 0 0 5.122 18.465-20.258 26.666a24.89 24.89 0 00-1.49.54 266.993 266.993 0 0020.743 20.986l1.008.914 1.008-.914c20.429-18.529 34.703-37.022 44.522-52.69z" fill="#e80054"/>
    <path d="M258.008 35.871C270.381 18.51 258 5.156 258 5.156l.023-.02c-.675.008-1.352.02-2.023.02-17.665 0-36.802-2.882-47.837-4.857a19.168 19.168 0 00-12.83 2.194 198.91 198.91 0 003.745 8.3c2.999 6.257 6.948 13.609 12.074 21.685 13.562 1.836 29.603 3.404 44.848 3.404.667.001 1.338-.005 2.008-.011z" fill="#d3dcfb"/>
    <path d="M256 35.883c15.244 0 31.286-1.568 44.848-3.404 5.125-8.075 9.075-15.428 12.073-21.685a200.093 200.093 0 003.745-8.3A19.166 19.166 0 00303.837.3C292.802 2.274 273.665 5.156 256 5.156c0 0 12.388 13.361 0 30.727z" fill="#bec8f7"/>
    <circle cx="337.723" cy="134.389" fill="#f9a0b1" transform="rotate(-45 337.724 134.46)" r="22.601"/>
    <path d="M191.357 146.833h-25.211a7 7 0 110-14h25.211a7 7 0 110 14z" fill="#f9a0b1"/>
    <path d="M254.992 83.885c7.465 6.836 15.753 13.678 24.953 20.411 31.382-28.986 50.259-58.487 61.607-82.96-7.558-4.683-14.672-10.048-21.185-16.111l-.084-.078a19.19 19.19 0 00-4.958-3.336 196.417 196.417 0 01-3.757 8.336c-9.515 19.855-26.607 46.822-56.576 73.738z" fill="#e9efff"/>
    <path d="M232.383 58.683l1.003 2.258h-.024c-3.813 0-11.14.688-16.848 5.367-4.129 3.385-6.59 8.221-7.373 14.354 9.502 10.987 20.62 22.118 33.629 33.087 8.954 7.549 22.27 6.721 30.248-1.852l8.02-8.619.012-.004c-20.303-14.724-36.214-29.997-48.667-44.591z" fill="#d3dcfb"/>
    <path d="M13.643 303.075c7.065 47.856 27.968 91.203 58.514 125.85 23.182-22.64 25.311-69.45 15.821-91.425-9.069-21.003-48.384-30.428-74.335-34.425zm484.714 0c-25.951 3.997-65.266 13.422-74.336 34.425-9.489 21.975-7.361 68.786 15.821 91.425 30.547-34.647 51.45-77.994 58.515-125.85z" fill="#3c58a0"/>
    <path d="M196.674 1.81a19.13 19.13 0 00-4.958 3.336l-.084.078c-6.513 6.064-13.628 11.43-21.187 16.113 8.462 18.249 21.123 39.295 40.021 60.837 1.857-22.318 25.275-19.624 25.275-19.624l-.002-.005c-17.252-19.409-28.323-37.82-35.309-52.398a198.945 198.945 0 01-3.756-8.337z" fill="#bec8f7"/>
</svg>